%TF.GenerationSoftware,KiCad,Pcbnew,10.0.1-10.0.1~ubuntu24.04.1*%
%TF.CreationDate,2026-05-06T23:34:04+02:00*%
%TF.ProjectId,monitor_lamp_custom_pcb,6d6f6e69-746f-4725-9f6c-616d705f6375,rev?*%
%TF.SameCoordinates,Original*%
%TF.FileFunction,Copper,L1,Top*%
%TF.FilePolarity,Positive*%
%FSLAX46Y46*%
G04 Gerber Fmt 4.6, Leading zero omitted, Abs format (unit mm)*
G04 Created by KiCad (PCBNEW 10.0.1-10.0.1~ubuntu24.04.1) date 2026-05-06 23:34:04*
%MOMM*%
%LPD*%
G01*
G04 APERTURE LIST*
G04 Aperture macros list*
%AMRoundRect*
0 Rectangle with rounded corners*
0 $1 Rounding radius*
0 $2 $3 $4 $5 $6 $7 $8 $9 X,Y pos of 4 corners*
0 Add a 4 corners polygon primitive as box body*
4,1,4,$2,$3,$4,$5,$6,$7,$8,$9,$2,$3,0*
0 Add four circle primitives for the rounded corners*
1,1,$1+$1,$2,$3*
1,1,$1+$1,$4,$5*
1,1,$1+$1,$6,$7*
1,1,$1+$1,$8,$9*
0 Add four rect primitives between the rounded corners*
20,1,$1+$1,$2,$3,$4,$5,0*
20,1,$1+$1,$4,$5,$6,$7,0*
20,1,$1+$1,$6,$7,$8,$9,0*
20,1,$1+$1,$8,$9,$2,$3,0*%
G04 Aperture macros list end*
%TA.AperFunction,SMDPad,CuDef*%
%ADD10R,0.800000X0.300000*%
%TD*%
%TA.AperFunction,SMDPad,CuDef*%
%ADD11R,1.800000X2.500000*%
%TD*%
%TA.AperFunction,SMDPad,CuDef*%
%ADD12RoundRect,0.150000X0.587500X0.150000X-0.587500X0.150000X-0.587500X-0.150000X0.587500X-0.150000X0*%
%TD*%
%TA.AperFunction,SMDPad,CuDef*%
%ADD13RoundRect,0.140000X-0.140000X-0.170000X0.140000X-0.170000X0.140000X0.170000X-0.140000X0.170000X0*%
%TD*%
%TA.AperFunction,SMDPad,CuDef*%
%ADD14R,4.000000X7.200000*%
%TD*%
%TA.AperFunction,SMDPad,CuDef*%
%ADD15RoundRect,0.135000X0.185000X-0.135000X0.185000X0.135000X-0.185000X0.135000X-0.185000X-0.135000X0*%
%TD*%
%TA.AperFunction,SMDPad,CuDef*%
%ADD16RoundRect,0.200000X-0.200000X-0.275000X0.200000X-0.275000X0.200000X0.275000X-0.200000X0.275000X0*%
%TD*%
%TA.AperFunction,ComponentPad*%
%ADD17C,1.348000*%
%TD*%
%TA.AperFunction,SMDPad,CuDef*%
%ADD18RoundRect,0.250000X-0.550000X1.500000X-0.550000X-1.500000X0.550000X-1.500000X0.550000X1.500000X0*%
%TD*%
%TA.AperFunction,ComponentPad*%
%ADD19RoundRect,0.250000X0.750000X-0.750000X0.750000X0.750000X-0.750000X0.750000X-0.750000X-0.750000X0*%
%TD*%
%TA.AperFunction,ComponentPad*%
%ADD20C,2.000000*%
%TD*%
%TA.AperFunction,SMDPad,CuDef*%
%ADD21RoundRect,0.250000X0.650000X-1.000000X0.650000X1.000000X-0.650000X1.000000X-0.650000X-1.000000X0*%
%TD*%
%TA.AperFunction,SMDPad,CuDef*%
%ADD22RoundRect,0.500000X1.500000X-0.500000X1.500000X0.500000X-1.500000X0.500000X-1.500000X-0.500000X0*%
%TD*%
%TA.AperFunction,SMDPad,CuDef*%
%ADD23RoundRect,0.225000X0.225000X0.250000X-0.225000X0.250000X-0.225000X-0.250000X0.225000X-0.250000X0*%
%TD*%
%TA.AperFunction,SMDPad,CuDef*%
%ADD24RoundRect,0.200000X0.275000X-0.200000X0.275000X0.200000X-0.275000X0.200000X-0.275000X-0.200000X0*%
%TD*%
%TA.AperFunction,SMDPad,CuDef*%
%ADD25RoundRect,0.250000X-0.650000X1.000000X-0.650000X-1.000000X0.650000X-1.000000X0.650000X1.000000X0*%
%TD*%
%TA.AperFunction,SMDPad,CuDef*%
%ADD26RoundRect,0.150000X-0.587500X-0.150000X0.587500X-0.150000X0.587500X0.150000X-0.587500X0.150000X0*%
%TD*%
%TA.AperFunction,SMDPad,CuDef*%
%ADD27RoundRect,0.150000X-0.625000X0.150000X-0.625000X-0.150000X0.625000X-0.150000X0.625000X0.150000X0*%
%TD*%
%TA.AperFunction,SMDPad,CuDef*%
%ADD28RoundRect,0.250000X-0.650000X0.350000X-0.650000X-0.350000X0.650000X-0.350000X0.650000X0.350000X0*%
%TD*%
%TA.AperFunction,SMDPad,CuDef*%
%ADD29RoundRect,0.200000X-0.275000X0.200000X-0.275000X-0.200000X0.275000X-0.200000X0.275000X0.200000X0*%
%TD*%
%TA.AperFunction,SMDPad,CuDef*%
%ADD30R,0.600000X1.550000*%
%TD*%
%TA.AperFunction,ComponentPad*%
%ADD31C,0.600000*%
%TD*%
%TA.AperFunction,SMDPad,CuDef*%
%ADD32R,3.100000X2.600000*%
%TD*%
%TA.AperFunction,SMDPad,CuDef*%
%ADD33R,4.500000X2.950000*%
%TD*%
%TA.AperFunction,SMDPad,CuDef*%
%ADD34RoundRect,0.200000X0.200000X0.275000X-0.200000X0.275000X-0.200000X-0.275000X0.200000X-0.275000X0*%
%TD*%
%TA.AperFunction,SMDPad,CuDef*%
%ADD35RoundRect,0.175000X0.175000X0.425000X-0.175000X0.425000X-0.175000X-0.425000X0.175000X-0.425000X0*%
%TD*%
%TA.AperFunction,SMDPad,CuDef*%
%ADD36RoundRect,0.190000X-0.190000X-0.410000X0.190000X-0.410000X0.190000X0.410000X-0.190000X0.410000X0*%
%TD*%
%TA.AperFunction,SMDPad,CuDef*%
%ADD37RoundRect,0.200000X-0.200000X-0.400000X0.200000X-0.400000X0.200000X0.400000X-0.200000X0.400000X0*%
%TD*%
%TA.AperFunction,SMDPad,CuDef*%
%ADD38RoundRect,0.175000X-0.175000X-0.425000X0.175000X-0.425000X0.175000X0.425000X-0.175000X0.425000X0*%
%TD*%
%TA.AperFunction,SMDPad,CuDef*%
%ADD39RoundRect,0.190000X0.190000X0.410000X-0.190000X0.410000X-0.190000X-0.410000X0.190000X-0.410000X0*%
%TD*%
%TA.AperFunction,SMDPad,CuDef*%
%ADD40RoundRect,0.200000X0.200000X0.400000X-0.200000X0.400000X-0.200000X-0.400000X0.200000X-0.400000X0*%
%TD*%
%TA.AperFunction,ComponentPad*%
%ADD41O,1.100000X1.700000*%
%TD*%
%TA.AperFunction,ViaPad*%
%ADD42C,0.600000*%
%TD*%
%TA.AperFunction,Conductor*%
%ADD43C,0.200000*%
%TD*%
%TA.AperFunction,Conductor*%
%ADD44C,0.400000*%
%TD*%
%TA.AperFunction,Conductor*%
%ADD45C,0.500000*%
%TD*%
%TA.AperFunction,Conductor*%
%ADD46C,0.250000*%
%TD*%
G04 APERTURE END LIST*
D10*
%TO.P,IC1,1,VIN_1*%
%TO.N,Net-(IC1-VIN)*%
X121725000Y-63500000D03*
%TO.P,IC1,2,D+_2*%
%TO.N,unconnected-(IC1-D+-Pad2)*%
X121725000Y-63000000D03*
%TO.P,IC1,3,D-_3*%
%TO.N,unconnected-(IC1-D--Pad3)*%
X121725000Y-62500000D03*
%TO.P,IC1,4,CC1_4*%
%TO.N,Net-(IC1-CC1)*%
X121725000Y-62000000D03*
%TO.P,IC1,5,CC2_5*%
%TO.N,Net-(IC1-CC2)*%
X121725000Y-61500000D03*
%TO.P,IC1,6,SDA_6*%
%TO.N,unconnected-(IC1-SDA-Pad6)*%
X118725000Y-61500000D03*
%TO.P,IC1,7,SCL_7*%
%TO.N,unconnected-(IC1-SCL-Pad7)*%
X118725000Y-62000000D03*
%TO.P,IC1,8,VSET_8*%
%TO.N,Net-(IC1-VSET)*%
X118725000Y-62500000D03*
%TO.P,IC1,9,ISET_9*%
%TO.N,unconnected-(IC1-ISET-Pad9)*%
X118725000Y-63000000D03*
%TO.P,IC1,10,GATE_10*%
%TO.N,Net-(IC1-GATE)*%
X118725000Y-63500000D03*
D11*
%TO.P,IC1,11,GND_11*%
%TO.N,GND*%
X120225000Y-62500000D03*
%TD*%
D12*
%TO.P,Q1,1,G_1*%
%TO.N,Net-(Q1-G)*%
X120875000Y-67450000D03*
%TO.P,Q1,2,S_2*%
%TO.N,Net-(Q1-S)*%
X120875000Y-65550000D03*
%TO.P,Q1,3,D_3*%
%TO.N,/+12V*%
X119000000Y-66500000D03*
%TD*%
D13*
%TO.P,C4,1*%
%TO.N,Net-(U1-BOOT)*%
X134505000Y-71700000D03*
%TO.P,C4,2*%
%TO.N,Net-(D2-K)*%
X135465000Y-71700000D03*
%TD*%
D14*
%TO.P,L1,1,1_1*%
%TO.N,Net-(D2-K)*%
X138200000Y-66100000D03*
%TO.P,L1,2,2_2*%
%TO.N,/+5V*%
X132200000Y-66100000D03*
%TD*%
D15*
%TO.P,R4,1*%
%TO.N,Net-(IC1-VSET)*%
X117300000Y-61410000D03*
%TO.P,R4,2*%
%TO.N,GND*%
X117300000Y-60390000D03*
%TD*%
D16*
%TO.P,R7,1*%
%TO.N,PWM_Control*%
X149975000Y-77400000D03*
%TO.P,R7,2*%
%TO.N,Net-(Q3-G)*%
X151625000Y-77400000D03*
%TD*%
D17*
%TO.P,U3,0,GPIO0_0*%
%TO.N,unconnected-(U3-GPIO0-Pad0)*%
X157820000Y-72620000D03*
%TO.P,U3,1,GPIO1_1*%
%TO.N,unconnected-(U3-GPIO1-Pad1)*%
X157820000Y-70080000D03*
%TO.P,U3,2,GPIO2_2*%
%TO.N,unconnected-(U3-GPIO2-Pad2)*%
X157820000Y-67540000D03*
%TO.P,U3,3,GPIO3_3*%
%TO.N,Net-(J3-Pin_2)*%
X157820000Y-65000000D03*
%TO.P,U3,3.3,3V3_3.3*%
%TO.N,unconnected-(U3-3V3-Pad3.3)*%
X157820000Y-59920000D03*
%TO.P,U3,4,GPIO4_4*%
%TO.N,Net-(J3-Pin_3)*%
X157820000Y-62460000D03*
%TO.P,U3,5,GPIO5_5*%
%TO.N,unconnected-(U3-GPIO5-Pad5)*%
X142580000Y-54840000D03*
%TO.P,U3,5V,5V_5V*%
%TO.N,/ESP32_Sensors_Mosfet/5V_Protected*%
X157820000Y-54840000D03*
%TO.P,U3,6,GPIO6_6*%
%TO.N,unconnected-(U3-GPIO6-Pad6)*%
X142580000Y-57380000D03*
%TO.P,U3,7,GPIO7_7*%
%TO.N,unconnected-(U3-GPIO7-Pad7)*%
X142580000Y-59920000D03*
%TO.P,U3,8,GPIO8_8*%
%TO.N,/ESP32_Sensors_Mosfet/SDA*%
X142580000Y-62460000D03*
%TO.P,U3,9,GPIO9_9*%
%TO.N,/ESP32_Sensors_Mosfet/SCL*%
X142580000Y-65000000D03*
%TO.P,U3,10,GPIO10_10*%
%TO.N,unconnected-(U3-GPIO10-Pad10)*%
X142580000Y-67540000D03*
%TO.P,U3,20,GPIO20_20*%
%TO.N,unconnected-(U3-GPIO20-Pad20)*%
X142580000Y-70080000D03*
%TO.P,U3,21,GPIO21_21*%
%TO.N,PWM_Control*%
X142580000Y-72620000D03*
%TO.P,U3,G,GND_G*%
%TO.N,GND*%
X157820000Y-57380000D03*
%TD*%
D18*
%TO.P,C5,1*%
%TO.N,/+5V*%
X124200000Y-70700000D03*
%TO.P,C5,2*%
%TO.N,GND*%
X124200000Y-76300000D03*
%TD*%
D19*
%TO.P,J4,1,Pin_1_1*%
%TO.N,/+12V*%
X160849956Y-85047500D03*
D20*
%TO.P,J4,2,Pin_2_2*%
%TO.N,Net-(D1-A)*%
X160849956Y-82507500D03*
%TD*%
D21*
%TO.P,D1,1,K_1*%
%TO.N,/+12V*%
X154700000Y-85750000D03*
%TO.P,D1,2,A_2*%
%TO.N,Net-(D1-A)*%
X154700000Y-81750000D03*
%TD*%
D22*
%TO.P,J9,1,Pin_1_1*%
%TO.N,GND*%
X135000000Y-55950000D03*
%TD*%
%TO.P,J7,1,Pin_1_1*%
%TO.N,GND*%
X144050000Y-79050000D03*
%TD*%
D23*
%TO.P,C2,1*%
%TO.N,/+12V*%
X130375000Y-83200000D03*
%TO.P,C2,2*%
%TO.N,GND*%
X128825000Y-83200000D03*
%TD*%
D24*
%TO.P,R2,1*%
%TO.N,Net-(Q1-G)*%
X123900000Y-66825000D03*
%TO.P,R2,2*%
%TO.N,Net-(IC1-GATE)*%
X123900000Y-65175000D03*
%TD*%
D25*
%TO.P,D2,1,K_1*%
%TO.N,Net-(D2-K)*%
X137795000Y-72300000D03*
%TO.P,D2,2,A_2*%
%TO.N,GND*%
X137795000Y-76300000D03*
%TD*%
D13*
%TO.P,C1,1*%
%TO.N,Net-(IC1-VIN)*%
X125020000Y-61500000D03*
%TO.P,C1,2*%
%TO.N,GND*%
X125980000Y-61500000D03*
%TD*%
D22*
%TO.P,J5,1,Pin_1_1*%
%TO.N,/+12V*%
X144050000Y-82600000D03*
%TD*%
D26*
%TO.P,Q2,1,G_1*%
%TO.N,GND*%
X149512500Y-56450000D03*
%TO.P,Q2,2,S_2*%
%TO.N,/+5V*%
X149512500Y-58350000D03*
%TO.P,Q2,3,D_3*%
%TO.N,/ESP32_Sensors_Mosfet/5V_Protected*%
X151387500Y-57400000D03*
%TD*%
D27*
%TO.P,J3,1,Pin_1_1*%
%TO.N,/ESP32_Sensors_Mosfet/5V_Protected*%
X161500000Y-56700000D03*
%TO.P,J3,2,Pin_2_2*%
%TO.N,Net-(J3-Pin_2)*%
X161500000Y-57700000D03*
%TO.P,J3,3,Pin_3_3*%
%TO.N,Net-(J3-Pin_3)*%
X161500000Y-58700000D03*
%TO.P,J3,4,Pin_4_4*%
%TO.N,GND*%
X161500000Y-59700000D03*
D28*
%TO.P,J3,MP,MP_MP*%
X164025000Y-55400000D03*
X164025000Y-61000000D03*
%TD*%
D29*
%TO.P,R5,1*%
%TO.N,/+5V*%
X128800000Y-70575000D03*
%TO.P,R5,2*%
%TO.N,Net-(U1-VSENSE)*%
X128800000Y-72225000D03*
%TD*%
D26*
%TO.P,Q3,1,G_1*%
%TO.N,Net-(Q3-G)*%
X154100000Y-77400000D03*
%TO.P,Q3,2,S_2*%
%TO.N,Net-(D1-A)*%
X154100000Y-79300000D03*
%TO.P,Q3,3,D_3*%
%TO.N,GND*%
X155975000Y-78350000D03*
%TD*%
D22*
%TO.P,J8,1,Pin_1_1*%
%TO.N,/ESP32_Sensors_Mosfet/5V_Protected*%
X135000000Y-59500000D03*
%TD*%
D29*
%TO.P,R6,1*%
%TO.N,Net-(U1-VSENSE)*%
X128800000Y-73975000D03*
%TO.P,R6,2*%
%TO.N,GND*%
X128800000Y-75625000D03*
%TD*%
D30*
%TO.P,U1,1,BOOT_1*%
%TO.N,Net-(U1-BOOT)*%
X134505000Y-73600000D03*
%TO.P,U1,2,NC_2*%
%TO.N,unconnected-(U1-NC-Pad2)*%
X133235000Y-73600000D03*
%TO.P,U1,3,NC_3*%
%TO.N,unconnected-(U1-NC-Pad3)*%
X131965000Y-73600000D03*
%TO.P,U1,4,VSENSE_4*%
%TO.N,Net-(U1-VSENSE)*%
X130695000Y-73600000D03*
%TO.P,U1,5,EN_5*%
%TO.N,unconnected-(U1-EN-Pad5)*%
X130695000Y-79000000D03*
%TO.P,U1,6,GND_6*%
%TO.N,GND*%
X131965000Y-79000000D03*
%TO.P,U1,7,VIN_7*%
%TO.N,/+12V*%
X133235000Y-79000000D03*
%TO.P,U1,8,PH_8*%
%TO.N,Net-(D2-K)*%
X134505000Y-79000000D03*
D31*
%TO.P,U1,9,GNDPAD_9*%
%TO.N,GND*%
X134400000Y-75700000D03*
X133200000Y-75700000D03*
X131900000Y-75700000D03*
X130800000Y-75700000D03*
D32*
X132600000Y-76300000D03*
D33*
X132600000Y-76300000D03*
D31*
X134400000Y-76900000D03*
X133200000Y-76900000D03*
X131900000Y-76900000D03*
X130800000Y-76900000D03*
%TD*%
D29*
%TO.P,R3,1*%
%TO.N,Net-(Q1-S)*%
X125825000Y-65175000D03*
%TO.P,R3,2*%
%TO.N,Net-(Q1-G)*%
X125825000Y-66825000D03*
%TD*%
D23*
%TO.P,C3,1*%
%TO.N,/+12V*%
X130375000Y-81484579D03*
%TO.P,C3,2*%
%TO.N,GND*%
X128825000Y-81484579D03*
%TD*%
D34*
%TO.P,R1,1*%
%TO.N,Net-(Q1-S)*%
X125825000Y-63500000D03*
%TO.P,R1,2*%
%TO.N,Net-(IC1-VIN)*%
X124175000Y-63500000D03*
%TD*%
D35*
%TO.P,J1,A5,CC1_A5*%
%TO.N,Net-(IC1-CC1)*%
X123985000Y-58620000D03*
D36*
%TO.P,J1,A9,VBUS_A9*%
%TO.N,Net-(Q1-S)*%
X121965000Y-58620000D03*
D37*
%TO.P,J1,A12,GND_A12*%
%TO.N,GND*%
X120735000Y-58620000D03*
D38*
%TO.P,J1,B5,CC2_B5*%
%TO.N,Net-(IC1-CC2)*%
X122985000Y-58620000D03*
D39*
%TO.P,J1,B9,VBUS_B9*%
%TO.N,Net-(Q1-S)*%
X125005000Y-58620000D03*
D40*
%TO.P,J1,B12,GND_B12*%
%TO.N,GND*%
X126235000Y-58620000D03*
D41*
%TO.P,J1,SH,SHIELD_SH*%
X127805000Y-58540000D03*
X127805000Y-54740000D03*
X119165000Y-58540000D03*
X119165000Y-54740000D03*
%TD*%
D29*
%TO.P,R8,1*%
%TO.N,Net-(Q3-G)*%
X151625000Y-79075000D03*
%TO.P,R8,2*%
%TO.N,GND*%
X151625000Y-80725000D03*
%TD*%
D27*
%TO.P,J2,1,Pin_1_1*%
%TO.N,/ESP32_Sensors_Mosfet/5V_Protected*%
X161514810Y-64992785D03*
%TO.P,J2,2,Pin_2_2*%
%TO.N,/ESP32_Sensors_Mosfet/SDA*%
X161514810Y-65992785D03*
%TO.P,J2,3,Pin_3_3*%
%TO.N,/ESP32_Sensors_Mosfet/SCL*%
X161514810Y-66992785D03*
%TO.P,J2,4,Pin_4_4*%
%TO.N,GND*%
X161514810Y-67992785D03*
D28*
%TO.P,J2,MP,MP_MP*%
X164039810Y-63692785D03*
X164039810Y-69292785D03*
%TD*%
D42*
%TO.N,GND*%
X119800000Y-61700000D03*
X120700000Y-63300000D03*
X146000000Y-54700000D03*
X121300000Y-56600000D03*
X157700000Y-78700000D03*
X161100000Y-78000000D03*
X119800000Y-63300000D03*
X160800000Y-60900000D03*
X117300000Y-59100000D03*
X119800000Y-63300000D03*
X119500000Y-60300000D03*
X139100000Y-55250000D03*
X164039810Y-66500000D03*
X164025000Y-58250000D03*
X120700000Y-63300000D03*
X122700000Y-56000000D03*
X119800000Y-61700000D03*
X159050000Y-78700000D03*
X164650000Y-78450000D03*
X130000000Y-54700000D03*
X160500000Y-54600000D03*
X162500000Y-78000000D03*
X125650000Y-56650000D03*
X120225000Y-62500000D03*
X160900000Y-69200000D03*
X161800000Y-78700000D03*
X159750000Y-78000000D03*
X138050000Y-55250000D03*
X142000000Y-77050000D03*
X117550000Y-86300000D03*
X158400000Y-78000000D03*
X127100000Y-62500000D03*
X117200000Y-65300000D03*
X143100000Y-77050000D03*
X151050000Y-82200000D03*
X160400000Y-78700000D03*
X124100000Y-56000000D03*
X147650000Y-57000000D03*
X154700000Y-54700000D03*
%TO.N,Net-(Q1-S)*%
X122800000Y-65300000D03*
X126900000Y-65300000D03*
%TD*%
%TO.N,Net-(IC1-VIN)*%
D43*
X124175000Y-62050000D02*
X124725000Y-61500000D01*
X124175000Y-63500000D02*
X124175000Y-62050000D01*
D44*
X121725000Y-63500000D02*
X124175000Y-63500000D01*
%TO.N,Net-(IC1-CC1)*%
D43*
X123985000Y-58620000D02*
X123985000Y-59150000D01*
X123985000Y-59150000D02*
X123385000Y-59750000D01*
X123385000Y-59750000D02*
X123385000Y-61430685D01*
X122815685Y-62000000D02*
X121725000Y-62000000D01*
X123385000Y-61430685D02*
X122815685Y-62000000D01*
%TO.N,Net-(IC1-CC2)*%
X122750000Y-61500000D02*
X121725000Y-61500000D01*
X122985000Y-61265000D02*
X122750000Y-61500000D01*
X122985000Y-58620000D02*
X122985000Y-61265000D01*
%TO.N,Net-(IC1-VSET)*%
X117300000Y-61900000D02*
X117300000Y-61410000D01*
X117900000Y-62500000D02*
X117300000Y-61900000D01*
X118725000Y-62500000D02*
X117900000Y-62500000D01*
%TO.N,Net-(IC1-GATE)*%
X117800000Y-64200000D02*
X118100000Y-64500000D01*
X118725000Y-63500000D02*
X118000000Y-63500000D01*
X123225000Y-64500000D02*
X123900000Y-65175000D01*
X118100000Y-64500000D02*
X123225000Y-64500000D01*
X117800000Y-63700000D02*
X117800000Y-64200000D01*
X118000000Y-63500000D02*
X117800000Y-63700000D01*
%TO.N,GND*%
X151625000Y-80725000D02*
X151625000Y-81625000D01*
X137350000Y-55950000D02*
X138050000Y-55250000D01*
X126275000Y-61675000D02*
X127100000Y-62500000D01*
X151625000Y-81625000D02*
X151050000Y-82200000D01*
X161500000Y-60200000D02*
X161500000Y-59700000D01*
X144050000Y-78000000D02*
X143100000Y-77050000D01*
X124100000Y-56000000D02*
X125000000Y-56000000D01*
X117300000Y-60390000D02*
X117300000Y-59100000D01*
X125000000Y-56000000D02*
X125650000Y-56650000D01*
X126235000Y-57235000D02*
X126235000Y-58620000D01*
X126275000Y-61500000D02*
X126275000Y-61675000D01*
X120735000Y-57165000D02*
X121300000Y-56600000D01*
X143100000Y-77050000D02*
X142000000Y-77050000D01*
X119800000Y-60600000D02*
X119500000Y-60300000D01*
X164039810Y-66500000D02*
X164039810Y-69292785D01*
X148200000Y-56450000D02*
X147650000Y-57000000D01*
X164000000Y-58000000D02*
X164025000Y-57975000D01*
X117300000Y-60390000D02*
X117410000Y-60390000D01*
X120735000Y-61990000D02*
X120225000Y-62500000D01*
X160900000Y-68600000D02*
X161500000Y-68000000D01*
X144050000Y-79050000D02*
X144050000Y-78000000D01*
X164000000Y-58250000D02*
X164000000Y-58000000D01*
X160800000Y-60900000D02*
X161500000Y-60200000D01*
X121900000Y-56000000D02*
X122700000Y-56000000D01*
X131140000Y-80300000D02*
X128400000Y-80300000D01*
X135000000Y-55950000D02*
X137350000Y-55950000D01*
X131965000Y-79000000D02*
X131965000Y-79475000D01*
X164000000Y-58250000D02*
X164025000Y-58275000D01*
X125650000Y-56650000D02*
X126235000Y-57235000D01*
X164025000Y-58275000D02*
X164025000Y-61000000D01*
X149512500Y-56450000D02*
X148200000Y-56450000D01*
X120735000Y-58620000D02*
X120735000Y-57165000D01*
X139100000Y-55250000D02*
X138050000Y-55250000D01*
X164025000Y-57975000D02*
X164025000Y-55400000D01*
X119800000Y-61700000D02*
X119800000Y-60600000D01*
X122700000Y-56000000D02*
X124100000Y-56000000D01*
X164039810Y-66500000D02*
X164039810Y-63692785D01*
X117410000Y-60390000D02*
X117500000Y-60300000D01*
X131965000Y-79475000D02*
X131140000Y-80300000D01*
X120735000Y-58620000D02*
X120735000Y-61990000D01*
X160900000Y-69200000D02*
X160900000Y-68600000D01*
X121300000Y-56600000D02*
X121900000Y-56000000D01*
%TO.N,Net-(Q1-G)*%
X121000000Y-67500000D02*
X123010000Y-67500000D01*
X123900000Y-66825000D02*
X125825000Y-66825000D01*
X123010000Y-67500000D02*
X123685000Y-66825000D01*
X123685000Y-66825000D02*
X123900000Y-66825000D01*
%TO.N,Net-(Q1-S)*%
D45*
X125885000Y-60100000D02*
X127600000Y-60100000D01*
X128300000Y-60800000D02*
X128300000Y-62900000D01*
X125825000Y-63500000D02*
X125825000Y-64990000D01*
X121965000Y-58620000D02*
X121965000Y-57735000D01*
X127700000Y-63500000D02*
X125825000Y-63500000D01*
X122500000Y-65600000D02*
X121000000Y-65600000D01*
X126590000Y-64990000D02*
X125825000Y-64990000D01*
X126900000Y-65300000D02*
X126590000Y-64990000D01*
X125005000Y-59220000D02*
X125885000Y-60100000D01*
X121965000Y-57735000D02*
X122600000Y-57100000D01*
X124400000Y-57100000D02*
X125005000Y-57705000D01*
X122800000Y-65300000D02*
X122500000Y-65600000D01*
X125005000Y-57705000D02*
X125005000Y-58620000D01*
X128300000Y-62900000D02*
X127700000Y-63500000D01*
X122600000Y-57100000D02*
X124400000Y-57100000D01*
D44*
X125005000Y-58620000D02*
X125005000Y-59220000D01*
D45*
X127600000Y-60100000D02*
X128300000Y-60800000D01*
%TO.N,Net-(U1-BOOT)*%
D43*
X134505000Y-71700000D02*
X134505000Y-73600000D01*
%TO.N,Net-(D2-K)*%
D44*
X138800000Y-79000000D02*
X139900000Y-77900000D01*
X139900000Y-75200000D02*
X137795000Y-73095000D01*
X137795000Y-73095000D02*
X137795000Y-72300000D01*
X139900000Y-77900000D02*
X139900000Y-75200000D01*
X134505000Y-79000000D02*
X138800000Y-79000000D01*
%TO.N,/+5V*%
X148100000Y-58350000D02*
X149512500Y-58350000D01*
X135250000Y-61250000D02*
X145200000Y-61250000D01*
X145200000Y-61250000D02*
X148100000Y-58350000D01*
X132200000Y-64300000D02*
X135250000Y-61250000D01*
X132200000Y-66100000D02*
X132200000Y-64300000D01*
%TO.N,PWM_Control*%
D43*
X147360000Y-77400000D02*
X142580000Y-72620000D01*
X149975000Y-77400000D02*
X147360000Y-77400000D01*
%TO.N,Net-(Q3-G)*%
X151625000Y-79075000D02*
X151625000Y-77400000D01*
X151625000Y-77400000D02*
X154100000Y-77400000D01*
%TO.N,Net-(J3-Pin_2)*%
X154900000Y-64000000D02*
X154900000Y-60200000D01*
X154900000Y-60200000D02*
X156500000Y-58600000D01*
X157820000Y-65000000D02*
X155900000Y-65000000D01*
X159825001Y-58600000D02*
X160725001Y-57700000D01*
X160725001Y-57700000D02*
X161500000Y-57700000D01*
X156500000Y-58600000D02*
X159825001Y-58600000D01*
X155900000Y-65000000D02*
X154900000Y-64000000D01*
%TO.N,Net-(J3-Pin_3)*%
X157500000Y-61925001D02*
X157500000Y-62140000D01*
X160725001Y-58700000D02*
X157500000Y-61925001D01*
X157500000Y-62140000D02*
X157820000Y-62460000D01*
X161500000Y-58700000D02*
X160725001Y-58700000D01*
%TO.N,/ESP32_Sensors_Mosfet/5V_Protected*%
X160050000Y-62950000D02*
X162800000Y-60200000D01*
X135000000Y-59500000D02*
X136000000Y-58500000D01*
D46*
X159700000Y-56000000D02*
X157140000Y-56000000D01*
D43*
X160542785Y-64992785D02*
X160050000Y-64500000D01*
D46*
X157140000Y-56000000D02*
X156740000Y-55600000D01*
D43*
X136000000Y-58500000D02*
X147242894Y-58500000D01*
X161514810Y-64992785D02*
X160542785Y-64992785D01*
X157500000Y-54840000D02*
X157820000Y-54840000D01*
X162800000Y-60200000D02*
X162800000Y-57350000D01*
D46*
X161500000Y-56700000D02*
X160400000Y-56700000D01*
D43*
X147242894Y-58500000D02*
X148342894Y-57400000D01*
D44*
X153950000Y-57400000D02*
X155750000Y-55600000D01*
D43*
X162150000Y-56700000D02*
X161500000Y-56700000D01*
D46*
X160400000Y-56700000D02*
X159700000Y-56000000D01*
D44*
X155750000Y-55600000D02*
X156740000Y-55600000D01*
D43*
X156740000Y-55600000D02*
X157500000Y-54840000D01*
D44*
X151387500Y-57400000D02*
X153950000Y-57400000D01*
D43*
X148342894Y-57400000D02*
X151387500Y-57400000D01*
X162800000Y-57350000D02*
X162150000Y-56700000D01*
X160050000Y-64500000D02*
X160050000Y-62950000D01*
%TO.N,Net-(U1-VSENSE)*%
X129175000Y-73600000D02*
X128800000Y-73975000D01*
X128800000Y-72225000D02*
X128800000Y-73975000D01*
X130695000Y-73600000D02*
X129175000Y-73600000D01*
%TD*%
%TA.AperFunction,Conductor*%
%TO.N,Net-(D2-K)*%
G36*
X138611971Y-62402381D02*
G01*
X138652346Y-62410412D01*
X138697043Y-62428927D01*
X138720913Y-62444877D01*
X138726805Y-62450769D01*
X138731537Y-62452829D01*
X138755122Y-62479086D01*
X138771072Y-62502956D01*
X138789588Y-62547655D01*
X138797617Y-62588022D01*
X138800000Y-62612210D01*
X138800000Y-72787930D01*
X138797619Y-72812113D01*
X138789596Y-72852461D01*
X138786412Y-72860150D01*
X138786322Y-72865299D01*
X138771098Y-72897141D01*
X138755162Y-72921005D01*
X138720977Y-72955214D01*
X138697126Y-72971166D01*
X138652452Y-72989697D01*
X138612110Y-72997746D01*
X138587932Y-73000143D01*
X137651577Y-73000778D01*
X137063215Y-73001177D01*
X137039015Y-72998809D01*
X136998631Y-72990802D01*
X136953907Y-72972306D01*
X136930024Y-72956365D01*
X136895786Y-72922155D01*
X136879826Y-72898287D01*
X136861293Y-72853583D01*
X136853250Y-72813202D01*
X136850861Y-72789010D01*
X136850763Y-72199966D01*
X136850761Y-72185539D01*
X136850759Y-72185530D01*
X136850746Y-72110784D01*
X136850729Y-72000000D01*
X138550000Y-72000000D01*
X138550000Y-71400000D01*
X136850627Y-71400000D01*
X136849140Y-62612247D01*
X136851519Y-62588055D01*
X136859543Y-62547683D01*
X136878055Y-62502975D01*
X136894003Y-62479102D01*
X136928210Y-62444887D01*
X136952084Y-62428932D01*
X136996784Y-62410414D01*
X137037165Y-62402381D01*
X137061352Y-62400000D01*
X138587789Y-62400000D01*
X138611971Y-62402381D01*
G37*
%TD.AperFunction*%
%TD*%
%TA.AperFunction,Conductor*%
%TO.N,/+12V*%
G36*
X119192714Y-66200267D02*
G01*
X119200852Y-66200802D01*
X119208950Y-66201602D01*
X119218089Y-66202810D01*
X119218093Y-66202812D01*
X119218094Y-66202811D01*
X119302413Y-66213957D01*
X119318368Y-66217143D01*
X119334013Y-66221353D01*
X119349395Y-66226598D01*
X119361337Y-66231567D01*
X119425080Y-66258089D01*
X119439660Y-66265313D01*
X119453656Y-66273433D01*
X119467175Y-66282512D01*
X119532060Y-66332572D01*
X119544270Y-66343343D01*
X119555675Y-66354820D01*
X119566367Y-66367097D01*
X119616018Y-66432302D01*
X119625005Y-66445867D01*
X119633037Y-66459914D01*
X119640177Y-66474557D01*
X119671175Y-66550410D01*
X119676332Y-66565856D01*
X119680438Y-66581509D01*
X119683527Y-66597499D01*
X119695288Y-66691022D01*
X119696038Y-66699135D01*
X119696520Y-66707242D01*
X119696737Y-66715386D01*
X119695056Y-66980894D01*
X119692404Y-67005626D01*
X119684923Y-67041202D01*
X119682653Y-67050281D01*
X119639903Y-67197419D01*
X119639902Y-67197425D01*
X119639901Y-67197426D01*
X119639901Y-67197428D01*
X119637000Y-67234290D01*
X119637000Y-67665708D01*
X119639901Y-67702570D01*
X119639901Y-67702572D01*
X119639902Y-67702573D01*
X119639904Y-67702584D01*
X119681869Y-67847025D01*
X119685609Y-67864529D01*
X119688057Y-67882120D01*
X119689239Y-67899996D01*
X119600098Y-81984584D01*
X122091710Y-84508409D01*
X122091756Y-84508455D01*
X122300812Y-84508406D01*
X122300814Y-84508407D01*
X124046720Y-84508004D01*
X142050000Y-84503857D01*
X142050000Y-85850000D01*
X146050000Y-85850000D01*
X146050000Y-84502936D01*
X154670927Y-84500951D01*
X155298336Y-84500806D01*
X155298337Y-84500806D01*
X157939754Y-84500199D01*
X157939773Y-84500196D01*
X158014287Y-84500181D01*
X158883623Y-84141893D01*
X158889215Y-84139747D01*
X158894925Y-84137714D01*
X158900613Y-84135843D01*
X158967888Y-84115525D01*
X158979586Y-84112608D01*
X158991439Y-84110259D01*
X159003369Y-84108495D01*
X159073262Y-84101620D01*
X159079231Y-84101179D01*
X159085331Y-84100878D01*
X159091328Y-84100729D01*
X161293660Y-84099788D01*
X161301718Y-84100048D01*
X161309847Y-84100578D01*
X161317889Y-84101367D01*
X161411003Y-84113586D01*
X161426887Y-84116738D01*
X161442481Y-84120909D01*
X161457818Y-84126108D01*
X161533259Y-84157319D01*
X161547795Y-84164479D01*
X161561766Y-84172538D01*
X161575250Y-84181540D01*
X161640028Y-84231202D01*
X161652234Y-84241898D01*
X161663639Y-84253295D01*
X161674331Y-84265476D01*
X161724054Y-84330221D01*
X161733053Y-84343676D01*
X161741131Y-84357655D01*
X161748302Y-84372179D01*
X161773824Y-84433723D01*
X161779572Y-84447582D01*
X161784791Y-84462939D01*
X161788971Y-84478513D01*
X161792142Y-84494419D01*
X161804434Y-84587484D01*
X161805233Y-84595555D01*
X161805767Y-84603646D01*
X161806036Y-84611760D01*
X161806441Y-85586835D01*
X161806179Y-85594943D01*
X161805653Y-85603022D01*
X161804861Y-85611103D01*
X161792639Y-85704221D01*
X161789479Y-85720137D01*
X161785313Y-85735706D01*
X161780104Y-85751067D01*
X161748889Y-85826499D01*
X161741720Y-85841048D01*
X161733666Y-85855009D01*
X161724658Y-85868500D01*
X161674973Y-85933291D01*
X161664285Y-85945485D01*
X161652893Y-85956883D01*
X161640699Y-85967583D01*
X161575941Y-86017298D01*
X161562458Y-86026312D01*
X161548497Y-86034377D01*
X161533946Y-86041556D01*
X161458536Y-86072810D01*
X161443176Y-86078028D01*
X161427614Y-86082201D01*
X161411702Y-86085369D01*
X161318597Y-86097641D01*
X161310525Y-86098437D01*
X161302430Y-86098969D01*
X161294314Y-86099236D01*
X160034232Y-86099402D01*
X159512077Y-86099471D01*
X159460719Y-86099478D01*
X159371879Y-86099489D01*
X159371859Y-86099490D01*
X159371858Y-86099490D01*
X158023683Y-86920434D01*
X158016296Y-86924592D01*
X158008800Y-86928481D01*
X158001149Y-86932125D01*
X157911253Y-86971221D01*
X157895285Y-86976902D01*
X157879087Y-86981445D01*
X157862505Y-86984894D01*
X157765402Y-86998256D01*
X157756977Y-86999124D01*
X157748521Y-86999703D01*
X157740051Y-86999993D01*
X142835220Y-86999995D01*
X120819284Y-86999997D01*
X120811180Y-86999732D01*
X120803103Y-86999203D01*
X120795023Y-86998407D01*
X120701944Y-86986154D01*
X120686033Y-86982989D01*
X120680269Y-86981445D01*
X120670459Y-86978816D01*
X120655103Y-86973603D01*
X120579702Y-86942371D01*
X120565158Y-86935199D01*
X120551195Y-86927138D01*
X120537705Y-86918124D01*
X120463216Y-86860966D01*
X120456947Y-86855821D01*
X120450853Y-86850477D01*
X120444928Y-86844928D01*
X117355070Y-83755070D01*
X117349521Y-83749145D01*
X117344177Y-83743051D01*
X117339032Y-83736782D01*
X117281874Y-83662293D01*
X117272860Y-83648803D01*
X117264799Y-83634840D01*
X117257627Y-83620296D01*
X117226390Y-83544883D01*
X117221181Y-83529536D01*
X117217008Y-83513962D01*
X117213845Y-83498063D01*
X117201589Y-83404964D01*
X117200796Y-83396923D01*
X117200264Y-83388798D01*
X117200000Y-83380713D01*
X117200000Y-67175228D01*
X117200395Y-67165337D01*
X117201189Y-67155439D01*
X117202371Y-67145633D01*
X117204283Y-67133788D01*
X117220614Y-67032595D01*
X117225325Y-67013348D01*
X117231497Y-66994725D01*
X117239216Y-66976470D01*
X117285136Y-66888273D01*
X117295658Y-66871489D01*
X117307384Y-66855741D01*
X117320441Y-66840855D01*
X117402596Y-66761075D01*
X117409967Y-66754471D01*
X117417585Y-66748174D01*
X117425461Y-66742176D01*
X118059245Y-66298527D01*
X118067189Y-66293407D01*
X118075310Y-66288600D01*
X118083611Y-66284106D01*
X118181683Y-66235755D01*
X118199223Y-66228715D01*
X118217094Y-66223081D01*
X118235505Y-66218788D01*
X118343576Y-66202159D01*
X118352977Y-66201079D01*
X118356603Y-66200802D01*
X118362372Y-66200361D01*
X118371823Y-66200000D01*
X119184580Y-66200000D01*
X119192714Y-66200267D01*
G37*
%TD.AperFunction*%
%TD*%
%TA.AperFunction,Conductor*%
%TO.N,GND*%
G36*
X128186597Y-74804554D02*
G01*
X128224476Y-74815113D01*
X128228166Y-74816449D01*
X128228230Y-74816245D01*
X128235391Y-74818476D01*
X128235394Y-74818478D01*
X128397804Y-74869086D01*
X128468384Y-74875500D01*
X128468387Y-74875500D01*
X129131613Y-74875500D01*
X129131616Y-74875500D01*
X129202196Y-74869086D01*
X129364606Y-74818478D01*
X129364608Y-74818476D01*
X129371783Y-74816241D01*
X129371849Y-74816453D01*
X129375528Y-74815111D01*
X129413407Y-74804552D01*
X129446698Y-74800000D01*
X130071023Y-74800000D01*
X130101689Y-74803852D01*
X130106277Y-74805023D01*
X130131579Y-74811481D01*
X130132324Y-74811671D01*
X130148478Y-74817368D01*
X130148523Y-74817249D01*
X130152666Y-74818794D01*
X130152671Y-74818797D01*
X130197618Y-74835561D01*
X130287517Y-74869091D01*
X130347127Y-74875500D01*
X131042872Y-74875499D01*
X131102483Y-74869091D01*
X131237331Y-74818796D01*
X131237332Y-74818794D01*
X131247516Y-74814996D01*
X131248831Y-74814514D01*
X131254414Y-74812503D01*
X131258418Y-74811481D01*
X131259905Y-74810525D01*
X131267772Y-74807692D01*
X131271571Y-74807463D01*
X131292180Y-74801613D01*
X131294668Y-74801256D01*
X131312273Y-74800000D01*
X131341023Y-74800000D01*
X131371689Y-74803852D01*
X131376277Y-74805023D01*
X131401579Y-74811481D01*
X131402324Y-74811671D01*
X131418478Y-74817368D01*
X131418523Y-74817249D01*
X131422666Y-74818794D01*
X131422671Y-74818797D01*
X131467618Y-74835561D01*
X131557517Y-74869091D01*
X131617127Y-74875500D01*
X132312872Y-74875499D01*
X132372483Y-74869091D01*
X132507331Y-74818796D01*
X132507332Y-74818794D01*
X132517516Y-74814996D01*
X132518831Y-74814514D01*
X132524414Y-74812503D01*
X132528418Y-74811481D01*
X132529905Y-74810525D01*
X132537772Y-74807692D01*
X132541571Y-74807463D01*
X132562180Y-74801613D01*
X132564668Y-74801256D01*
X132582273Y-74800000D01*
X132611023Y-74800000D01*
X132641689Y-74803852D01*
X132646277Y-74805023D01*
X132671579Y-74811481D01*
X132672324Y-74811671D01*
X132688478Y-74817368D01*
X132688523Y-74817249D01*
X132692666Y-74818794D01*
X132692671Y-74818797D01*
X132737618Y-74835561D01*
X132827517Y-74869091D01*
X132887127Y-74875500D01*
X133582872Y-74875499D01*
X133642483Y-74869091D01*
X133777331Y-74818796D01*
X133777332Y-74818794D01*
X133787516Y-74814996D01*
X133788831Y-74814514D01*
X133794414Y-74812503D01*
X133798418Y-74811481D01*
X133799905Y-74810525D01*
X133807772Y-74807692D01*
X133811571Y-74807463D01*
X133832180Y-74801613D01*
X133834668Y-74801256D01*
X133852273Y-74800000D01*
X133881023Y-74800000D01*
X133911689Y-74803852D01*
X133916277Y-74805023D01*
X133941579Y-74811481D01*
X133942324Y-74811671D01*
X133958478Y-74817368D01*
X133958523Y-74817249D01*
X133962666Y-74818794D01*
X133962671Y-74818797D01*
X134007618Y-74835561D01*
X134097517Y-74869091D01*
X134157127Y-74875500D01*
X134852872Y-74875499D01*
X134912483Y-74869091D01*
X135047331Y-74818796D01*
X135047332Y-74818794D01*
X135057514Y-74814997D01*
X135070168Y-74811035D01*
X135098316Y-74803850D01*
X135128977Y-74800000D01*
X138282821Y-74800000D01*
X138290903Y-74800264D01*
X138299033Y-74800797D01*
X138307074Y-74801589D01*
X138400173Y-74813846D01*
X138416065Y-74817007D01*
X138431645Y-74821181D01*
X138446995Y-74826392D01*
X138522411Y-74857630D01*
X138536953Y-74864802D01*
X138550914Y-74872862D01*
X138564403Y-74881875D01*
X138629154Y-74931561D01*
X138641348Y-74942255D01*
X138652742Y-74953649D01*
X138663437Y-74965844D01*
X138713126Y-75030600D01*
X138722137Y-75044086D01*
X138730194Y-75058041D01*
X138737368Y-75072589D01*
X138768603Y-75147998D01*
X138773815Y-75163351D01*
X138777988Y-75178922D01*
X138781154Y-75194836D01*
X138793409Y-75287921D01*
X138794204Y-75295982D01*
X138794734Y-75304080D01*
X138795000Y-75312178D01*
X138795000Y-77287819D01*
X138794734Y-77295938D01*
X138794204Y-77304015D01*
X138793409Y-77312082D01*
X138781154Y-77405163D01*
X138777988Y-77421076D01*
X138773815Y-77436647D01*
X138768603Y-77452000D01*
X138737368Y-77527409D01*
X138730194Y-77541957D01*
X138722137Y-77555912D01*
X138713126Y-77569398D01*
X138663437Y-77634154D01*
X138652742Y-77646349D01*
X138641349Y-77657742D01*
X138629154Y-77668437D01*
X138564398Y-77718126D01*
X138550912Y-77727137D01*
X138536957Y-77735194D01*
X138522409Y-77742368D01*
X138447000Y-77773603D01*
X138431647Y-77778815D01*
X138416076Y-77782988D01*
X138400163Y-77786154D01*
X138333151Y-77794977D01*
X138314398Y-77797446D01*
X138313060Y-77797622D01*
X138307063Y-77798411D01*
X138299015Y-77799204D01*
X138298484Y-77799238D01*
X138290919Y-77799734D01*
X138282819Y-77800000D01*
X135128977Y-77800000D01*
X135098312Y-77796148D01*
X135068417Y-77788518D01*
X135067677Y-77788329D01*
X135051524Y-77782631D01*
X135051480Y-77782750D01*
X134922654Y-77734702D01*
X134922651Y-77734701D01*
X134912486Y-77730910D01*
X134912485Y-77730909D01*
X134912483Y-77730909D01*
X134899021Y-77729461D01*
X134899014Y-77729460D01*
X134852883Y-77724501D01*
X134852881Y-77724500D01*
X134852873Y-77724500D01*
X134852865Y-77724500D01*
X134161740Y-77724500D01*
X134157129Y-77724500D01*
X134157123Y-77724501D01*
X134097516Y-77730908D01*
X133962671Y-77781202D01*
X133957679Y-77783928D01*
X133946325Y-77787235D01*
X133945429Y-77787233D01*
X133942325Y-77788328D01*
X133941576Y-77788518D01*
X133939681Y-77789344D01*
X133907899Y-77798374D01*
X133905423Y-77798731D01*
X133887727Y-77800000D01*
X133858977Y-77800000D01*
X133828312Y-77796148D01*
X133798417Y-77788518D01*
X133797677Y-77788329D01*
X133781524Y-77782631D01*
X133781480Y-77782750D01*
X133652654Y-77734702D01*
X133652651Y-77734701D01*
X133642486Y-77730910D01*
X133642485Y-77730909D01*
X133642483Y-77730909D01*
X133629021Y-77729461D01*
X133629014Y-77729460D01*
X133582883Y-77724501D01*
X133582881Y-77724500D01*
X133582873Y-77724500D01*
X133582865Y-77724500D01*
X132891740Y-77724500D01*
X132887129Y-77724500D01*
X132887123Y-77724501D01*
X132827516Y-77730908D01*
X132692672Y-77781202D01*
X132687678Y-77783929D01*
X132676325Y-77787236D01*
X132675428Y-77787234D01*
X132672321Y-77788329D01*
X132641688Y-77796148D01*
X132611024Y-77800000D01*
X131318977Y-77800000D01*
X131288312Y-77796148D01*
X131258417Y-77788518D01*
X131257677Y-77788329D01*
X131241524Y-77782631D01*
X131241480Y-77782750D01*
X131112654Y-77734702D01*
X131112651Y-77734701D01*
X131102486Y-77730910D01*
X131102485Y-77730909D01*
X131102483Y-77730909D01*
X131089021Y-77729461D01*
X131089014Y-77729460D01*
X131042883Y-77724501D01*
X131042881Y-77724500D01*
X131042873Y-77724500D01*
X131042865Y-77724500D01*
X130347123Y-77724500D01*
X130345192Y-77724659D01*
X130343545Y-77724885D01*
X130287516Y-77730908D01*
X130164702Y-77776715D01*
X130152666Y-77781204D01*
X130152665Y-77781205D01*
X130037456Y-77867450D01*
X130037454Y-77867452D01*
X130037449Y-77867458D01*
X129964754Y-77964565D01*
X129964752Y-77964567D01*
X129951205Y-77982665D01*
X129951204Y-77982666D01*
X129924544Y-78054144D01*
X129922896Y-78057816D01*
X129921276Y-78059709D01*
X129914084Y-78074078D01*
X129899998Y-78095995D01*
X129883365Y-78116634D01*
X129299087Y-78700914D01*
X129299085Y-78700915D01*
X129299177Y-78908146D01*
X129299177Y-78908147D01*
X129301038Y-83187201D01*
X129300776Y-83195315D01*
X129300249Y-83203406D01*
X129299457Y-83211477D01*
X129287244Y-83304560D01*
X129284088Y-83320462D01*
X129279919Y-83336047D01*
X129274715Y-83351400D01*
X129243511Y-83426823D01*
X129236346Y-83441370D01*
X129228293Y-83455333D01*
X129219286Y-83468826D01*
X129169631Y-83533596D01*
X129158942Y-83545795D01*
X129147545Y-83557202D01*
X129135354Y-83567902D01*
X129070625Y-83617615D01*
X129057145Y-83626631D01*
X129043189Y-83634697D01*
X129028641Y-83641879D01*
X128953246Y-83673146D01*
X128937891Y-83678366D01*
X128922326Y-83682544D01*
X128906419Y-83685715D01*
X128813346Y-83698010D01*
X128805265Y-83698809D01*
X128803435Y-83698930D01*
X128797173Y-83699343D01*
X128789073Y-83699611D01*
X127462277Y-83700191D01*
X126912408Y-83700430D01*
X126904299Y-83700168D01*
X126896219Y-83699642D01*
X126888138Y-83698850D01*
X126795015Y-83686628D01*
X126779092Y-83683466D01*
X126763515Y-83679297D01*
X126748158Y-83674089D01*
X126672722Y-83642871D01*
X126658171Y-83635701D01*
X126644213Y-83627648D01*
X126630719Y-83618637D01*
X126565927Y-83568947D01*
X126553727Y-83558254D01*
X126542326Y-83546856D01*
X126531632Y-83534666D01*
X126481918Y-83469902D01*
X126472902Y-83456413D01*
X126464839Y-83442452D01*
X126457666Y-83427914D01*
X126426407Y-83352475D01*
X126421194Y-83337121D01*
X126417020Y-83321551D01*
X126413852Y-83305632D01*
X126413711Y-83304560D01*
X126401589Y-83212504D01*
X126400795Y-83204433D01*
X126400265Y-83196338D01*
X126400000Y-83188237D01*
X126400000Y-78700000D01*
X125500000Y-77800000D01*
X125292893Y-77800000D01*
X123907179Y-77800000D01*
X123899073Y-77799734D01*
X123890996Y-77799204D01*
X123882931Y-77798410D01*
X123873921Y-77797224D01*
X123873918Y-77797224D01*
X123789835Y-77786154D01*
X123773922Y-77782988D01*
X123758351Y-77778815D01*
X123742998Y-77773603D01*
X123667589Y-77742368D01*
X123653041Y-77735194D01*
X123639086Y-77727137D01*
X123625600Y-77718126D01*
X123560844Y-77668437D01*
X123548649Y-77657742D01*
X123537256Y-77646349D01*
X123526561Y-77634154D01*
X123476872Y-77569398D01*
X123467861Y-77555912D01*
X123459804Y-77541957D01*
X123452630Y-77527410D01*
X123421394Y-77452000D01*
X123416181Y-77436643D01*
X123412010Y-77421076D01*
X123412007Y-77421065D01*
X123408846Y-77405173D01*
X123396589Y-77312074D01*
X123395796Y-77304030D01*
X123395264Y-77295905D01*
X123395000Y-77287820D01*
X123395000Y-75312178D01*
X123395264Y-75304095D01*
X123395797Y-75295965D01*
X123396590Y-75287920D01*
X123408845Y-75194834D01*
X123412010Y-75178923D01*
X123416182Y-75163354D01*
X123421395Y-75147998D01*
X123452631Y-75072587D01*
X123459801Y-75058046D01*
X123459804Y-75058041D01*
X123467864Y-75044079D01*
X123476856Y-75030620D01*
X123526578Y-74965822D01*
X123537251Y-74953653D01*
X123548653Y-74942251D01*
X123560830Y-74931572D01*
X123625613Y-74881862D01*
X123639075Y-74872866D01*
X123653052Y-74864796D01*
X123667566Y-74857638D01*
X123743012Y-74826387D01*
X123758352Y-74821181D01*
X123773931Y-74817007D01*
X123789821Y-74813846D01*
X123882927Y-74801589D01*
X123890966Y-74800797D01*
X123899095Y-74800264D01*
X123907179Y-74800000D01*
X128153301Y-74800000D01*
X128186597Y-74804554D01*
G37*
%TD.AperFunction*%
%TD*%
%TA.AperFunction,Conductor*%
%TO.N,Net-(D2-K)*%
G36*
X138550000Y-72000000D02*
G01*
X135412211Y-72000000D01*
X135387992Y-71997611D01*
X135386154Y-71997245D01*
X135385276Y-71997071D01*
X135323374Y-71964669D01*
X135288816Y-71903945D01*
X135285500Y-71875460D01*
X135285500Y-71524539D01*
X135305185Y-71457500D01*
X135357989Y-71411745D01*
X135385311Y-71402921D01*
X135388038Y-71402379D01*
X135412211Y-71400000D01*
X136850627Y-71400000D01*
X138550000Y-71400000D01*
X138550000Y-72000000D01*
G37*
%TD.AperFunction*%
%TD*%
%TA.AperFunction,Conductor*%
%TO.N,GND*%
G36*
X162893841Y-77550595D02*
G01*
X162905918Y-77551785D01*
X162917930Y-77553566D01*
X162940373Y-77558030D01*
X162963619Y-77565081D01*
X162985770Y-77574257D01*
X163007201Y-77585715D01*
X163010772Y-77588101D01*
X163029548Y-77603512D01*
X163034475Y-77608439D01*
X163044265Y-77616999D01*
X163049202Y-77622496D01*
X163060045Y-77636453D01*
X163064289Y-77642805D01*
X163075744Y-77664236D01*
X163084911Y-77686365D01*
X163091970Y-77709635D01*
X163096428Y-77732051D01*
X163098212Y-77744072D01*
X163099402Y-77756142D01*
X163100000Y-77768308D01*
X163100000Y-78931694D01*
X163099402Y-78943858D01*
X163098212Y-78955930D01*
X163096428Y-78967955D01*
X163091972Y-78990359D01*
X163088285Y-79004489D01*
X163086778Y-79009124D01*
X163086397Y-79010046D01*
X163086392Y-79010314D01*
X163084161Y-79017181D01*
X163082333Y-79019853D01*
X163082259Y-79020032D01*
X163078092Y-79032368D01*
X163074904Y-79039033D01*
X163066139Y-79054426D01*
X163061902Y-79060766D01*
X163046486Y-79079548D01*
X163029548Y-79096486D01*
X163010757Y-79111908D01*
X163007195Y-79114288D01*
X162985763Y-79125744D01*
X162963635Y-79134911D01*
X162940361Y-79141971D01*
X162935835Y-79142871D01*
X162917951Y-79146428D01*
X162905928Y-79148212D01*
X162893858Y-79149402D01*
X162881692Y-79150000D01*
X157001150Y-79150000D01*
X156988991Y-79149402D01*
X156976914Y-79148212D01*
X156964881Y-79146427D01*
X156942475Y-79141970D01*
X156919216Y-79134915D01*
X156897081Y-79125746D01*
X156875642Y-79114287D01*
X156856636Y-79101587D01*
X156846867Y-79094341D01*
X156837495Y-79086650D01*
X156828476Y-79078476D01*
X156400000Y-78650000D01*
X156317157Y-78650000D01*
X155518307Y-78650000D01*
X155506152Y-78649403D01*
X155494081Y-78648214D01*
X155482043Y-78646428D01*
X155472744Y-78644578D01*
X155459627Y-78641969D01*
X155436375Y-78634915D01*
X155414232Y-78625743D01*
X155392798Y-78614284D01*
X155389235Y-78611903D01*
X155370450Y-78596486D01*
X155353512Y-78579548D01*
X155338099Y-78560770D01*
X155335715Y-78557201D01*
X155324257Y-78535770D01*
X155315081Y-78513619D01*
X155308030Y-78490373D01*
X155303566Y-78467930D01*
X155301785Y-78455918D01*
X155300595Y-78443841D01*
X155300000Y-78431702D01*
X155300000Y-78268297D01*
X155300595Y-78256162D01*
X155301785Y-78244078D01*
X155303569Y-78232055D01*
X155308030Y-78209628D01*
X155315085Y-78186369D01*
X155324256Y-78164230D01*
X155335711Y-78142802D01*
X155338097Y-78139232D01*
X155353507Y-78120455D01*
X155370455Y-78103507D01*
X155389220Y-78088104D01*
X155392801Y-78085712D01*
X155414229Y-78074257D01*
X155436378Y-78065082D01*
X155459624Y-78058030D01*
X155482071Y-78053565D01*
X155494078Y-78051785D01*
X155506161Y-78050595D01*
X155518296Y-78050000D01*
X156400000Y-78050000D01*
X156828485Y-77621513D01*
X156837494Y-77613349D01*
X156846866Y-77605658D01*
X156856625Y-77598418D01*
X156875653Y-77585704D01*
X156897072Y-77574255D01*
X156919225Y-77565079D01*
X156942463Y-77558031D01*
X156964912Y-77553565D01*
X156976922Y-77551785D01*
X156989000Y-77550595D01*
X157001139Y-77550000D01*
X162881702Y-77550000D01*
X162893841Y-77550595D01*
G37*
%TD.AperFunction*%
%TD*%
%TA.AperFunction,Conductor*%
%TO.N,/+5V*%
G36*
X134011349Y-62502075D02*
G01*
X134051716Y-62510098D01*
X134096417Y-62528605D01*
X134120292Y-62544552D01*
X134126191Y-62550449D01*
X134130926Y-62552510D01*
X134154514Y-62578765D01*
X134170465Y-62602632D01*
X134188985Y-62647329D01*
X134197019Y-62687696D01*
X134199404Y-62711889D01*
X134199991Y-69605015D01*
X134197614Y-69629189D01*
X134189600Y-69669527D01*
X134171111Y-69714207D01*
X134148274Y-69748419D01*
X134132874Y-69767205D01*
X133024427Y-70876982D01*
X133005648Y-70892412D01*
X132971443Y-70915298D01*
X132926751Y-70933842D01*
X132886390Y-70941895D01*
X132862201Y-70944292D01*
X123562335Y-70949871D01*
X123538134Y-70947501D01*
X123497749Y-70939490D01*
X123490035Y-70936299D01*
X123484869Y-70936209D01*
X123453025Y-70920989D01*
X123429143Y-70905045D01*
X123394907Y-70870829D01*
X123378948Y-70846956D01*
X123360421Y-70802247D01*
X123352383Y-70761856D01*
X123350000Y-70737664D01*
X123350000Y-69162353D01*
X123352383Y-69138161D01*
X123360421Y-69097766D01*
X123378950Y-69053057D01*
X123394912Y-69029181D01*
X123429147Y-68994968D01*
X123453037Y-68979020D01*
X123497757Y-68960523D01*
X123538156Y-68952512D01*
X123562351Y-68950145D01*
X129295303Y-68954074D01*
X129343717Y-68905724D01*
X129343726Y-68905718D01*
X129770183Y-68479843D01*
X130200000Y-68050616D01*
X130200000Y-62712520D01*
X130202382Y-62688331D01*
X130210410Y-62647967D01*
X130228920Y-62603274D01*
X130229349Y-62602632D01*
X130244867Y-62579404D01*
X130279073Y-62545194D01*
X130302938Y-62529245D01*
X130347625Y-62510728D01*
X130368707Y-62506530D01*
X130387992Y-62502691D01*
X130412169Y-62500305D01*
X132124263Y-62500013D01*
X133987156Y-62499696D01*
X134011349Y-62502075D01*
G37*
%TD.AperFunction*%
%TD*%
%TA.AperFunction,Conductor*%
%TO.N,/+12V*%
G36*
X133411971Y-78302381D02*
G01*
X133452346Y-78310412D01*
X133497043Y-78328927D01*
X133520913Y-78344877D01*
X133526805Y-78350769D01*
X133531537Y-78352829D01*
X133555122Y-78379086D01*
X133571072Y-78402956D01*
X133589588Y-78447655D01*
X133597617Y-78488022D01*
X133600000Y-78512210D01*
X133600000Y-84505803D01*
X133600000Y-85900000D01*
X129901482Y-85901333D01*
X129900034Y-81212343D01*
X129902410Y-81188157D01*
X129910436Y-81147758D01*
X129928950Y-81103044D01*
X129944907Y-81079160D01*
X129979130Y-81044940D01*
X130003011Y-81028986D01*
X130047729Y-81010473D01*
X130088120Y-81002450D01*
X130112317Y-81000075D01*
X131716044Y-81000644D01*
X131716044Y-81000643D01*
X131740706Y-81000652D01*
X131740707Y-81000651D01*
X131798884Y-81000673D01*
X132899965Y-79900414D01*
X132899993Y-78512199D01*
X132902375Y-78488026D01*
X132910407Y-78447645D01*
X132928920Y-78402954D01*
X132944873Y-78379080D01*
X132979081Y-78344875D01*
X133002949Y-78328927D01*
X133047643Y-78310413D01*
X133088022Y-78302381D01*
X133112205Y-78300000D01*
X133387789Y-78300000D01*
X133411971Y-78302381D01*
G37*
%TD.AperFunction*%
%TD*%
%TA.AperFunction,Conductor*%
%TO.N,/+12V*%
G36*
X145761971Y-81602381D02*
G01*
X145840618Y-81618024D01*
X145885308Y-81636535D01*
X145941626Y-81674166D01*
X145947519Y-81680059D01*
X145952251Y-81682119D01*
X145975832Y-81708371D01*
X146013462Y-81764688D01*
X146031976Y-81809387D01*
X146047617Y-81888019D01*
X146050000Y-81912210D01*
X146050000Y-84502935D01*
X146050000Y-85850000D01*
X142050000Y-85850000D01*
X142050000Y-81912210D01*
X142052381Y-81888029D01*
X142068025Y-81809379D01*
X142086534Y-81764693D01*
X142124168Y-81708370D01*
X142158370Y-81674168D01*
X142214693Y-81636534D01*
X142259379Y-81618025D01*
X142338028Y-81602381D01*
X142362211Y-81600000D01*
X145737789Y-81600000D01*
X145761971Y-81602381D01*
G37*
%TD.AperFunction*%
%TD*%
%TA.AperFunction,Conductor*%
%TO.N,Net-(D1-A)*%
G36*
X154446286Y-79052381D02*
G01*
X154563201Y-79075636D01*
X154570897Y-79078824D01*
X154576057Y-79078917D01*
X154607893Y-79094149D01*
X154676993Y-79140320D01*
X154707003Y-79160372D01*
X154725793Y-79175793D01*
X157100000Y-81550000D01*
X160490244Y-81550000D01*
X160509641Y-81551527D01*
X160604207Y-81566504D01*
X160641102Y-81578491D01*
X160717617Y-81617477D01*
X160749002Y-81640281D01*
X160809718Y-81700997D01*
X160832522Y-81732383D01*
X160871507Y-81808895D01*
X160883495Y-81845792D01*
X160898473Y-81940357D01*
X160900000Y-81959755D01*
X160900000Y-83040244D01*
X160898473Y-83059642D01*
X160883495Y-83154207D01*
X160871507Y-83191104D01*
X160832522Y-83267616D01*
X160809718Y-83299002D01*
X160749002Y-83359718D01*
X160717616Y-83382522D01*
X160641104Y-83421507D01*
X160604207Y-83433495D01*
X160524425Y-83446131D01*
X160509640Y-83448473D01*
X160490244Y-83450000D01*
X156577896Y-83450000D01*
X156553705Y-83447617D01*
X156436804Y-83424364D01*
X156392104Y-83405849D01*
X156292996Y-83339627D01*
X156274206Y-83324206D01*
X156000213Y-83050213D01*
X153911178Y-83050956D01*
X153891779Y-83049436D01*
X153797210Y-83034492D01*
X153760310Y-83022517D01*
X153683783Y-82983559D01*
X153652389Y-82960767D01*
X153591650Y-82900071D01*
X153568837Y-82868696D01*
X153529825Y-82792198D01*
X153517824Y-82755308D01*
X153502810Y-82660731D01*
X153501278Y-82641347D01*
X153500145Y-79459894D01*
X153501665Y-79440503D01*
X153516618Y-79345900D01*
X153528596Y-79309000D01*
X153567571Y-79232458D01*
X153590371Y-79201064D01*
X153624266Y-79167157D01*
X153651096Y-79140317D01*
X153682479Y-79117509D01*
X153759007Y-79078505D01*
X153795909Y-79066512D01*
X153890503Y-79051526D01*
X153909905Y-79050000D01*
X154422104Y-79050000D01*
X154446286Y-79052381D01*
G37*
%TD.AperFunction*%
%TD*%
M02*
