%TF.GenerationSoftware,KiCad,Pcbnew,10.0.1*%
%TF.CreationDate,2026-05-07T13:39:12+02:00*%
%TF.ProjectId,monitor_lamp_custom_pcb,6d6f6e69-746f-4725-9f6c-616d705f6375,rev?*%
%TF.SameCoordinates,Original*%
%TF.FileFunction,Legend,Top*%
%TF.FilePolarity,Positive*%
%FSLAX46Y46*%
G04 Gerber Fmt 4.6, Leading zero omitted, Abs format (unit mm)*
G04 Created by KiCad (PCBNEW 10.0.1) date 2026-05-07 13:39:12*
%MOMM*%
%LPD*%
G01*
G04 APERTURE LIST*
%ADD10C,0.170000*%
%ADD11C,0.070000*%
%ADD12C,0.100000*%
%ADD13C,0.150000*%
%ADD14C,0.200000*%
%ADD15C,0.300000*%
%ADD16C,0.250000*%
%ADD17C,0.120000*%
%ADD18C,0.127000*%
G04 APERTURE END LIST*
D10*
X161315000Y-75225000D02*
G75*
G02*
X161145000Y-75225000I-85000J0D01*
G01*
X161145000Y-75225000D02*
G75*
G02*
X161315000Y-75225000I85000J0D01*
G01*
D11*
X161230000Y-75225000D02*
X162200000Y-77025000D01*
D10*
X162235000Y-73525000D02*
G75*
G02*
X162065000Y-73525000I-85000J0D01*
G01*
X162065000Y-73525000D02*
G75*
G02*
X162235000Y-73525000I85000J0D01*
G01*
X163335000Y-76225000D02*
G75*
G02*
X163165000Y-76225000I-85000J0D01*
G01*
X163165000Y-76225000D02*
G75*
G02*
X163335000Y-76225000I85000J0D01*
G01*
X162285000Y-77025000D02*
G75*
G02*
X162115000Y-77025000I-85000J0D01*
G01*
X162115000Y-77025000D02*
G75*
G02*
X162285000Y-77025000I85000J0D01*
G01*
X162435000Y-74775000D02*
G75*
G02*
X162265000Y-74775000I-85000J0D01*
G01*
X162265000Y-74775000D02*
G75*
G02*
X162435000Y-74775000I85000J0D01*
G01*
D11*
X162200000Y-77025000D02*
X163250000Y-76225000D01*
D10*
X162985000Y-71175000D02*
G75*
G02*
X162815000Y-71175000I-85000J0D01*
G01*
X162815000Y-71175000D02*
G75*
G02*
X162985000Y-71175000I85000J0D01*
G01*
X162485000Y-72225000D02*
G75*
G02*
X162315000Y-72225000I-85000J0D01*
G01*
X162315000Y-72225000D02*
G75*
G02*
X162485000Y-72225000I85000J0D01*
G01*
D11*
X163250000Y-76225000D02*
X162350000Y-74775000D01*
X162150000Y-73525000D02*
X162350000Y-74775000D01*
X162900000Y-71175000D02*
X162400000Y-72225000D01*
X162350000Y-74775000D02*
X161230000Y-75225000D01*
X162400000Y-72225000D02*
X162150000Y-73525000D01*
D12*
X163000000Y-70900000D02*
X163050000Y-70850000D01*
X163711800Y-71502880D02*
X163161800Y-71302880D01*
X163511800Y-71102880D02*
X163161800Y-71152880D01*
X163286800Y-70902880D02*
X163136800Y-71002880D01*
X163100000Y-71450000D02*
X163800000Y-71900000D01*
X160158609Y-60315163D02*
X159658609Y-60315163D01*
X159658609Y-60315163D02*
X159658609Y-60124687D01*
X159658609Y-60124687D02*
X159682419Y-60077068D01*
X159682419Y-60077068D02*
X159706228Y-60053258D01*
X159706228Y-60053258D02*
X159753847Y-60029449D01*
X159753847Y-60029449D02*
X159825276Y-60029449D01*
X159825276Y-60029449D02*
X159872895Y-60053258D01*
X159872895Y-60053258D02*
X159896704Y-60077068D01*
X159896704Y-60077068D02*
X159920514Y-60124687D01*
X159920514Y-60124687D02*
X159920514Y-60315163D01*
X160158609Y-59815163D02*
X159825276Y-59815163D01*
X159920514Y-59815163D02*
X159872895Y-59791353D01*
X159872895Y-59791353D02*
X159849085Y-59767544D01*
X159849085Y-59767544D02*
X159825276Y-59719925D01*
X159825276Y-59719925D02*
X159825276Y-59672306D01*
X160134800Y-59315163D02*
X160158609Y-59362782D01*
X160158609Y-59362782D02*
X160158609Y-59458020D01*
X160158609Y-59458020D02*
X160134800Y-59505639D01*
X160134800Y-59505639D02*
X160087180Y-59529448D01*
X160087180Y-59529448D02*
X159896704Y-59529448D01*
X159896704Y-59529448D02*
X159849085Y-59505639D01*
X159849085Y-59505639D02*
X159825276Y-59458020D01*
X159825276Y-59458020D02*
X159825276Y-59362782D01*
X159825276Y-59362782D02*
X159849085Y-59315163D01*
X159849085Y-59315163D02*
X159896704Y-59291353D01*
X159896704Y-59291353D02*
X159944323Y-59291353D01*
X159944323Y-59291353D02*
X159991942Y-59529448D01*
X160134800Y-59100877D02*
X160158609Y-59053258D01*
X160158609Y-59053258D02*
X160158609Y-58958020D01*
X160158609Y-58958020D02*
X160134800Y-58910401D01*
X160134800Y-58910401D02*
X160087180Y-58886592D01*
X160087180Y-58886592D02*
X160063371Y-58886592D01*
X160063371Y-58886592D02*
X160015752Y-58910401D01*
X160015752Y-58910401D02*
X159991942Y-58958020D01*
X159991942Y-58958020D02*
X159991942Y-59029449D01*
X159991942Y-59029449D02*
X159968133Y-59077068D01*
X159968133Y-59077068D02*
X159920514Y-59100877D01*
X159920514Y-59100877D02*
X159896704Y-59100877D01*
X159896704Y-59100877D02*
X159849085Y-59077068D01*
X159849085Y-59077068D02*
X159825276Y-59029449D01*
X159825276Y-59029449D02*
X159825276Y-58958020D01*
X159825276Y-58958020D02*
X159849085Y-58910401D01*
X160134800Y-58481830D02*
X160158609Y-58529449D01*
X160158609Y-58529449D02*
X160158609Y-58624687D01*
X160158609Y-58624687D02*
X160134800Y-58672306D01*
X160134800Y-58672306D02*
X160087180Y-58696115D01*
X160087180Y-58696115D02*
X159896704Y-58696115D01*
X159896704Y-58696115D02*
X159849085Y-58672306D01*
X159849085Y-58672306D02*
X159825276Y-58624687D01*
X159825276Y-58624687D02*
X159825276Y-58529449D01*
X159825276Y-58529449D02*
X159849085Y-58481830D01*
X159849085Y-58481830D02*
X159896704Y-58458020D01*
X159896704Y-58458020D02*
X159944323Y-58458020D01*
X159944323Y-58458020D02*
X159991942Y-58696115D01*
X159825276Y-58243735D02*
X160158609Y-58243735D01*
X159872895Y-58243735D02*
X159849085Y-58219925D01*
X159849085Y-58219925D02*
X159825276Y-58172306D01*
X159825276Y-58172306D02*
X159825276Y-58100878D01*
X159825276Y-58100878D02*
X159849085Y-58053259D01*
X159849085Y-58053259D02*
X159896704Y-58029449D01*
X159896704Y-58029449D02*
X160158609Y-58029449D01*
X160134800Y-57577068D02*
X160158609Y-57624687D01*
X160158609Y-57624687D02*
X160158609Y-57719925D01*
X160158609Y-57719925D02*
X160134800Y-57767544D01*
X160134800Y-57767544D02*
X160110990Y-57791354D01*
X160110990Y-57791354D02*
X160063371Y-57815163D01*
X160063371Y-57815163D02*
X159920514Y-57815163D01*
X159920514Y-57815163D02*
X159872895Y-57791354D01*
X159872895Y-57791354D02*
X159849085Y-57767544D01*
X159849085Y-57767544D02*
X159825276Y-57719925D01*
X159825276Y-57719925D02*
X159825276Y-57624687D01*
X159825276Y-57624687D02*
X159849085Y-57577068D01*
X160134800Y-57172307D02*
X160158609Y-57219926D01*
X160158609Y-57219926D02*
X160158609Y-57315164D01*
X160158609Y-57315164D02*
X160134800Y-57362783D01*
X160134800Y-57362783D02*
X160087180Y-57386592D01*
X160087180Y-57386592D02*
X159896704Y-57386592D01*
X159896704Y-57386592D02*
X159849085Y-57362783D01*
X159849085Y-57362783D02*
X159825276Y-57315164D01*
X159825276Y-57315164D02*
X159825276Y-57219926D01*
X159825276Y-57219926D02*
X159849085Y-57172307D01*
X159849085Y-57172307D02*
X159896704Y-57148497D01*
X159896704Y-57148497D02*
X159944323Y-57148497D01*
X159944323Y-57148497D02*
X159991942Y-57386592D01*
X160173419Y-68369853D02*
X160173419Y-68607948D01*
X160173419Y-68607948D02*
X159673419Y-68607948D01*
X159840086Y-67988900D02*
X160173419Y-67988900D01*
X159840086Y-68203186D02*
X160101990Y-68203186D01*
X160101990Y-68203186D02*
X160149610Y-68179376D01*
X160149610Y-68179376D02*
X160173419Y-68131757D01*
X160173419Y-68131757D02*
X160173419Y-68060329D01*
X160173419Y-68060329D02*
X160149610Y-68012710D01*
X160149610Y-68012710D02*
X160125800Y-67988900D01*
X160173419Y-67798424D02*
X159840086Y-67536519D01*
X159840086Y-67798424D02*
X160173419Y-67536519D01*
D13*
X137805826Y-56547342D02*
X137748684Y-56518771D01*
X137748684Y-56518771D02*
X137662969Y-56518771D01*
X137662969Y-56518771D02*
X137577255Y-56547342D01*
X137577255Y-56547342D02*
X137520112Y-56604485D01*
X137520112Y-56604485D02*
X137491541Y-56661628D01*
X137491541Y-56661628D02*
X137462969Y-56775914D01*
X137462969Y-56775914D02*
X137462969Y-56861628D01*
X137462969Y-56861628D02*
X137491541Y-56975914D01*
X137491541Y-56975914D02*
X137520112Y-57033057D01*
X137520112Y-57033057D02*
X137577255Y-57090200D01*
X137577255Y-57090200D02*
X137662969Y-57118771D01*
X137662969Y-57118771D02*
X137720112Y-57118771D01*
X137720112Y-57118771D02*
X137805826Y-57090200D01*
X137805826Y-57090200D02*
X137834398Y-57061628D01*
X137834398Y-57061628D02*
X137834398Y-56861628D01*
X137834398Y-56861628D02*
X137720112Y-56861628D01*
X138091541Y-57118771D02*
X138091541Y-56518771D01*
X138091541Y-56518771D02*
X138434398Y-57118771D01*
X138434398Y-57118771D02*
X138434398Y-56518771D01*
X138720112Y-57118771D02*
X138720112Y-56518771D01*
X138720112Y-56518771D02*
X138862969Y-56518771D01*
X138862969Y-56518771D02*
X138948683Y-56547342D01*
X138948683Y-56547342D02*
X139005826Y-56604485D01*
X139005826Y-56604485D02*
X139034397Y-56661628D01*
X139034397Y-56661628D02*
X139062969Y-56775914D01*
X139062969Y-56775914D02*
X139062969Y-56861628D01*
X139062969Y-56861628D02*
X139034397Y-56975914D01*
X139034397Y-56975914D02*
X139005826Y-57033057D01*
X139005826Y-57033057D02*
X138948683Y-57090200D01*
X138948683Y-57090200D02*
X138862969Y-57118771D01*
X138862969Y-57118771D02*
X138720112Y-57118771D01*
X137491541Y-60440200D02*
X137948684Y-60440200D01*
X137720112Y-60668771D02*
X137720112Y-60211628D01*
X138520112Y-60068771D02*
X138234398Y-60068771D01*
X138234398Y-60068771D02*
X138205826Y-60354485D01*
X138205826Y-60354485D02*
X138234398Y-60325914D01*
X138234398Y-60325914D02*
X138291541Y-60297342D01*
X138291541Y-60297342D02*
X138434398Y-60297342D01*
X138434398Y-60297342D02*
X138491541Y-60325914D01*
X138491541Y-60325914D02*
X138520112Y-60354485D01*
X138520112Y-60354485D02*
X138548683Y-60411628D01*
X138548683Y-60411628D02*
X138548683Y-60554485D01*
X138548683Y-60554485D02*
X138520112Y-60611628D01*
X138520112Y-60611628D02*
X138491541Y-60640200D01*
X138491541Y-60640200D02*
X138434398Y-60668771D01*
X138434398Y-60668771D02*
X138291541Y-60668771D01*
X138291541Y-60668771D02*
X138234398Y-60640200D01*
X138234398Y-60640200D02*
X138205826Y-60611628D01*
X138720112Y-60068771D02*
X138920112Y-60668771D01*
X138920112Y-60668771D02*
X139120112Y-60068771D01*
X146855826Y-79647342D02*
X146798684Y-79618771D01*
X146798684Y-79618771D02*
X146712969Y-79618771D01*
X146712969Y-79618771D02*
X146627255Y-79647342D01*
X146627255Y-79647342D02*
X146570112Y-79704485D01*
X146570112Y-79704485D02*
X146541541Y-79761628D01*
X146541541Y-79761628D02*
X146512969Y-79875914D01*
X146512969Y-79875914D02*
X146512969Y-79961628D01*
X146512969Y-79961628D02*
X146541541Y-80075914D01*
X146541541Y-80075914D02*
X146570112Y-80133057D01*
X146570112Y-80133057D02*
X146627255Y-80190200D01*
X146627255Y-80190200D02*
X146712969Y-80218771D01*
X146712969Y-80218771D02*
X146770112Y-80218771D01*
X146770112Y-80218771D02*
X146855826Y-80190200D01*
X146855826Y-80190200D02*
X146884398Y-80161628D01*
X146884398Y-80161628D02*
X146884398Y-79961628D01*
X146884398Y-79961628D02*
X146770112Y-79961628D01*
X147141541Y-80218771D02*
X147141541Y-79618771D01*
X147141541Y-79618771D02*
X147484398Y-80218771D01*
X147484398Y-80218771D02*
X147484398Y-79618771D01*
X147770112Y-80218771D02*
X147770112Y-79618771D01*
X147770112Y-79618771D02*
X147912969Y-79618771D01*
X147912969Y-79618771D02*
X147998683Y-79647342D01*
X147998683Y-79647342D02*
X148055826Y-79704485D01*
X148055826Y-79704485D02*
X148084397Y-79761628D01*
X148084397Y-79761628D02*
X148112969Y-79875914D01*
X148112969Y-79875914D02*
X148112969Y-79961628D01*
X148112969Y-79961628D02*
X148084397Y-80075914D01*
X148084397Y-80075914D02*
X148055826Y-80133057D01*
X148055826Y-80133057D02*
X147998683Y-80190200D01*
X147998683Y-80190200D02*
X147912969Y-80218771D01*
X147912969Y-80218771D02*
X147770112Y-80218771D01*
X146541541Y-83540200D02*
X146998684Y-83540200D01*
X146770112Y-83768771D02*
X146770112Y-83311628D01*
X147598683Y-83768771D02*
X147255826Y-83768771D01*
X147427255Y-83768771D02*
X147427255Y-83168771D01*
X147427255Y-83168771D02*
X147370112Y-83254485D01*
X147370112Y-83254485D02*
X147312969Y-83311628D01*
X147312969Y-83311628D02*
X147255826Y-83340200D01*
X147827255Y-83225914D02*
X147855827Y-83197342D01*
X147855827Y-83197342D02*
X147912970Y-83168771D01*
X147912970Y-83168771D02*
X148055827Y-83168771D01*
X148055827Y-83168771D02*
X148112970Y-83197342D01*
X148112970Y-83197342D02*
X148141541Y-83225914D01*
X148141541Y-83225914D02*
X148170112Y-83283057D01*
X148170112Y-83283057D02*
X148170112Y-83340200D01*
X148170112Y-83340200D02*
X148141541Y-83425914D01*
X148141541Y-83425914D02*
X147798684Y-83768771D01*
X147798684Y-83768771D02*
X148170112Y-83768771D01*
X148341541Y-83168771D02*
X148541541Y-83768771D01*
X148541541Y-83768771D02*
X148741541Y-83168771D01*
X162091541Y-87290200D02*
X162548684Y-87290200D01*
X162320112Y-87518771D02*
X162320112Y-87061628D01*
X163148683Y-87518771D02*
X162805826Y-87518771D01*
X162977255Y-87518771D02*
X162977255Y-86918771D01*
X162977255Y-86918771D02*
X162920112Y-87004485D01*
X162920112Y-87004485D02*
X162862969Y-87061628D01*
X162862969Y-87061628D02*
X162805826Y-87090200D01*
X163377255Y-86975914D02*
X163405827Y-86947342D01*
X163405827Y-86947342D02*
X163462970Y-86918771D01*
X163462970Y-86918771D02*
X163605827Y-86918771D01*
X163605827Y-86918771D02*
X163662970Y-86947342D01*
X163662970Y-86947342D02*
X163691541Y-86975914D01*
X163691541Y-86975914D02*
X163720112Y-87033057D01*
X163720112Y-87033057D02*
X163720112Y-87090200D01*
X163720112Y-87090200D02*
X163691541Y-87175914D01*
X163691541Y-87175914D02*
X163348684Y-87518771D01*
X163348684Y-87518771D02*
X163720112Y-87518771D01*
X163891541Y-86918771D02*
X164091541Y-87518771D01*
X164091541Y-87518771D02*
X164291541Y-86918771D01*
D14*
X118603006Y-85643409D02*
X118745863Y-85691028D01*
X118745863Y-85691028D02*
X118793482Y-85738647D01*
X118793482Y-85738647D02*
X118841101Y-85833885D01*
X118841101Y-85833885D02*
X118841101Y-85976742D01*
X118841101Y-85976742D02*
X118793482Y-86071980D01*
X118793482Y-86071980D02*
X118745863Y-86119600D01*
X118745863Y-86119600D02*
X118650625Y-86167219D01*
X118650625Y-86167219D02*
X118269673Y-86167219D01*
X118269673Y-86167219D02*
X118269673Y-85167219D01*
X118269673Y-85167219D02*
X118603006Y-85167219D01*
X118603006Y-85167219D02*
X118698244Y-85214838D01*
X118698244Y-85214838D02*
X118745863Y-85262457D01*
X118745863Y-85262457D02*
X118793482Y-85357695D01*
X118793482Y-85357695D02*
X118793482Y-85452933D01*
X118793482Y-85452933D02*
X118745863Y-85548171D01*
X118745863Y-85548171D02*
X118698244Y-85595790D01*
X118698244Y-85595790D02*
X118603006Y-85643409D01*
X118603006Y-85643409D02*
X118269673Y-85643409D01*
X119174435Y-85500552D02*
X119412530Y-86167219D01*
X119650625Y-85500552D02*
X119412530Y-86167219D01*
X119412530Y-86167219D02*
X119317292Y-86405314D01*
X119317292Y-86405314D02*
X119269673Y-86452933D01*
X119269673Y-86452933D02*
X119174435Y-86500552D01*
X121317292Y-85214838D02*
X121222054Y-85167219D01*
X121222054Y-85167219D02*
X121079197Y-85167219D01*
X121079197Y-85167219D02*
X120936340Y-85214838D01*
X120936340Y-85214838D02*
X120841102Y-85310076D01*
X120841102Y-85310076D02*
X120793483Y-85405314D01*
X120793483Y-85405314D02*
X120745864Y-85595790D01*
X120745864Y-85595790D02*
X120745864Y-85738647D01*
X120745864Y-85738647D02*
X120793483Y-85929123D01*
X120793483Y-85929123D02*
X120841102Y-86024361D01*
X120841102Y-86024361D02*
X120936340Y-86119600D01*
X120936340Y-86119600D02*
X121079197Y-86167219D01*
X121079197Y-86167219D02*
X121174435Y-86167219D01*
X121174435Y-86167219D02*
X121317292Y-86119600D01*
X121317292Y-86119600D02*
X121364911Y-86071980D01*
X121364911Y-86071980D02*
X121364911Y-85738647D01*
X121364911Y-85738647D02*
X121174435Y-85738647D01*
X121793483Y-86167219D02*
X121793483Y-85500552D01*
X121793483Y-85167219D02*
X121745864Y-85214838D01*
X121745864Y-85214838D02*
X121793483Y-85262457D01*
X121793483Y-85262457D02*
X121841102Y-85214838D01*
X121841102Y-85214838D02*
X121793483Y-85167219D01*
X121793483Y-85167219D02*
X121793483Y-85262457D01*
X122698244Y-86167219D02*
X122698244Y-85643409D01*
X122698244Y-85643409D02*
X122650625Y-85548171D01*
X122650625Y-85548171D02*
X122555387Y-85500552D01*
X122555387Y-85500552D02*
X122364911Y-85500552D01*
X122364911Y-85500552D02*
X122269673Y-85548171D01*
X122698244Y-86119600D02*
X122603006Y-86167219D01*
X122603006Y-86167219D02*
X122364911Y-86167219D01*
X122364911Y-86167219D02*
X122269673Y-86119600D01*
X122269673Y-86119600D02*
X122222054Y-86024361D01*
X122222054Y-86024361D02*
X122222054Y-85929123D01*
X122222054Y-85929123D02*
X122269673Y-85833885D01*
X122269673Y-85833885D02*
X122364911Y-85786266D01*
X122364911Y-85786266D02*
X122603006Y-85786266D01*
X122603006Y-85786266D02*
X122698244Y-85738647D01*
X123174435Y-86167219D02*
X123174435Y-85167219D01*
X123269673Y-85786266D02*
X123555387Y-86167219D01*
X123555387Y-85500552D02*
X123174435Y-85881504D01*
X123983959Y-86167219D02*
X123983959Y-85167219D01*
X124079197Y-85786266D02*
X124364911Y-86167219D01*
X124364911Y-85500552D02*
X123983959Y-85881504D01*
X130507767Y-86167219D02*
X130031577Y-86167219D01*
X130031577Y-86167219D02*
X130031577Y-85167219D01*
X130841101Y-86167219D02*
X130841101Y-85500552D01*
X130841101Y-85167219D02*
X130793482Y-85214838D01*
X130793482Y-85214838D02*
X130841101Y-85262457D01*
X130841101Y-85262457D02*
X130888720Y-85214838D01*
X130888720Y-85214838D02*
X130841101Y-85167219D01*
X130841101Y-85167219D02*
X130841101Y-85262457D01*
X131745862Y-85500552D02*
X131745862Y-86310076D01*
X131745862Y-86310076D02*
X131698243Y-86405314D01*
X131698243Y-86405314D02*
X131650624Y-86452933D01*
X131650624Y-86452933D02*
X131555386Y-86500552D01*
X131555386Y-86500552D02*
X131412529Y-86500552D01*
X131412529Y-86500552D02*
X131317291Y-86452933D01*
X131745862Y-86119600D02*
X131650624Y-86167219D01*
X131650624Y-86167219D02*
X131460148Y-86167219D01*
X131460148Y-86167219D02*
X131364910Y-86119600D01*
X131364910Y-86119600D02*
X131317291Y-86071980D01*
X131317291Y-86071980D02*
X131269672Y-85976742D01*
X131269672Y-85976742D02*
X131269672Y-85691028D01*
X131269672Y-85691028D02*
X131317291Y-85595790D01*
X131317291Y-85595790D02*
X131364910Y-85548171D01*
X131364910Y-85548171D02*
X131460148Y-85500552D01*
X131460148Y-85500552D02*
X131650624Y-85500552D01*
X131650624Y-85500552D02*
X131745862Y-85548171D01*
X132222053Y-86167219D02*
X132222053Y-85167219D01*
X132650624Y-86167219D02*
X132650624Y-85643409D01*
X132650624Y-85643409D02*
X132603005Y-85548171D01*
X132603005Y-85548171D02*
X132507767Y-85500552D01*
X132507767Y-85500552D02*
X132364910Y-85500552D01*
X132364910Y-85500552D02*
X132269672Y-85548171D01*
X132269672Y-85548171D02*
X132222053Y-85595790D01*
X132983958Y-85500552D02*
X133364910Y-85500552D01*
X133126815Y-85167219D02*
X133126815Y-86024361D01*
X133126815Y-86024361D02*
X133174434Y-86119600D01*
X133174434Y-86119600D02*
X133269672Y-86167219D01*
X133269672Y-86167219D02*
X133364910Y-86167219D01*
X134364911Y-85500552D02*
X134603006Y-86167219D01*
X134841101Y-85500552D02*
X134603006Y-86167219D01*
X134603006Y-86167219D02*
X134507768Y-86405314D01*
X134507768Y-86405314D02*
X134460149Y-86452933D01*
X134460149Y-86452933D02*
X134364911Y-86500552D01*
X135364911Y-86167219D02*
X135269673Y-86119600D01*
X135269673Y-86119600D02*
X135222054Y-86071980D01*
X135222054Y-86071980D02*
X135174435Y-85976742D01*
X135174435Y-85976742D02*
X135174435Y-85691028D01*
X135174435Y-85691028D02*
X135222054Y-85595790D01*
X135222054Y-85595790D02*
X135269673Y-85548171D01*
X135269673Y-85548171D02*
X135364911Y-85500552D01*
X135364911Y-85500552D02*
X135507768Y-85500552D01*
X135507768Y-85500552D02*
X135603006Y-85548171D01*
X135603006Y-85548171D02*
X135650625Y-85595790D01*
X135650625Y-85595790D02*
X135698244Y-85691028D01*
X135698244Y-85691028D02*
X135698244Y-85976742D01*
X135698244Y-85976742D02*
X135650625Y-86071980D01*
X135650625Y-86071980D02*
X135603006Y-86119600D01*
X135603006Y-86119600D02*
X135507768Y-86167219D01*
X135507768Y-86167219D02*
X135364911Y-86167219D01*
X136555387Y-85500552D02*
X136555387Y-86167219D01*
X136126816Y-85500552D02*
X136126816Y-86024361D01*
X136126816Y-86024361D02*
X136174435Y-86119600D01*
X136174435Y-86119600D02*
X136269673Y-86167219D01*
X136269673Y-86167219D02*
X136412530Y-86167219D01*
X136412530Y-86167219D02*
X136507768Y-86119600D01*
X136507768Y-86119600D02*
X136555387Y-86071980D01*
X137031578Y-86167219D02*
X137031578Y-85500552D01*
X137031578Y-85691028D02*
X137079197Y-85595790D01*
X137079197Y-85595790D02*
X137126816Y-85548171D01*
X137126816Y-85548171D02*
X137222054Y-85500552D01*
X137222054Y-85500552D02*
X137317292Y-85500552D01*
X138841102Y-86167219D02*
X138841102Y-85167219D01*
X138841102Y-86119600D02*
X138745864Y-86167219D01*
X138745864Y-86167219D02*
X138555388Y-86167219D01*
X138555388Y-86167219D02*
X138460150Y-86119600D01*
X138460150Y-86119600D02*
X138412531Y-86071980D01*
X138412531Y-86071980D02*
X138364912Y-85976742D01*
X138364912Y-85976742D02*
X138364912Y-85691028D01*
X138364912Y-85691028D02*
X138412531Y-85595790D01*
X138412531Y-85595790D02*
X138460150Y-85548171D01*
X138460150Y-85548171D02*
X138555388Y-85500552D01*
X138555388Y-85500552D02*
X138745864Y-85500552D01*
X138745864Y-85500552D02*
X138841102Y-85548171D01*
X139698245Y-86119600D02*
X139603007Y-86167219D01*
X139603007Y-86167219D02*
X139412531Y-86167219D01*
X139412531Y-86167219D02*
X139317293Y-86119600D01*
X139317293Y-86119600D02*
X139269674Y-86024361D01*
X139269674Y-86024361D02*
X139269674Y-85643409D01*
X139269674Y-85643409D02*
X139317293Y-85548171D01*
X139317293Y-85548171D02*
X139412531Y-85500552D01*
X139412531Y-85500552D02*
X139603007Y-85500552D01*
X139603007Y-85500552D02*
X139698245Y-85548171D01*
X139698245Y-85548171D02*
X139745864Y-85643409D01*
X139745864Y-85643409D02*
X139745864Y-85738647D01*
X139745864Y-85738647D02*
X139269674Y-85833885D01*
X140126817Y-86119600D02*
X140222055Y-86167219D01*
X140222055Y-86167219D02*
X140412531Y-86167219D01*
X140412531Y-86167219D02*
X140507769Y-86119600D01*
X140507769Y-86119600D02*
X140555388Y-86024361D01*
X140555388Y-86024361D02*
X140555388Y-85976742D01*
X140555388Y-85976742D02*
X140507769Y-85881504D01*
X140507769Y-85881504D02*
X140412531Y-85833885D01*
X140412531Y-85833885D02*
X140269674Y-85833885D01*
X140269674Y-85833885D02*
X140174436Y-85786266D01*
X140174436Y-85786266D02*
X140126817Y-85691028D01*
X140126817Y-85691028D02*
X140126817Y-85643409D01*
X140126817Y-85643409D02*
X140174436Y-85548171D01*
X140174436Y-85548171D02*
X140269674Y-85500552D01*
X140269674Y-85500552D02*
X140412531Y-85500552D01*
X140412531Y-85500552D02*
X140507769Y-85548171D01*
X140983960Y-86167219D02*
X140983960Y-85167219D01*
X141079198Y-85786266D02*
X141364912Y-86167219D01*
X141364912Y-85500552D02*
X140983960Y-85881504D01*
X141793484Y-86071980D02*
X141841103Y-86119600D01*
X141841103Y-86119600D02*
X141793484Y-86167219D01*
X141793484Y-86167219D02*
X141745865Y-86119600D01*
X141745865Y-86119600D02*
X141793484Y-86071980D01*
X141793484Y-86071980D02*
X141793484Y-86167219D01*
X142269674Y-86071980D02*
X142317293Y-86119600D01*
X142317293Y-86119600D02*
X142269674Y-86167219D01*
X142269674Y-86167219D02*
X142222055Y-86119600D01*
X142222055Y-86119600D02*
X142269674Y-86071980D01*
X142269674Y-86071980D02*
X142269674Y-86167219D01*
X142745864Y-86071980D02*
X142793483Y-86119600D01*
X142793483Y-86119600D02*
X142745864Y-86167219D01*
X142745864Y-86167219D02*
X142698245Y-86119600D01*
X142698245Y-86119600D02*
X142745864Y-86071980D01*
X142745864Y-86071980D02*
X142745864Y-86167219D01*
D15*
X148600198Y-72245489D02*
X148600198Y-71745489D01*
X149385912Y-71531203D02*
X149385912Y-72245489D01*
X149385912Y-72245489D02*
X147885912Y-72245489D01*
X147885912Y-72245489D02*
X147885912Y-71531203D01*
X149314484Y-70959774D02*
X149385912Y-70745489D01*
X149385912Y-70745489D02*
X149385912Y-70388346D01*
X149385912Y-70388346D02*
X149314484Y-70245489D01*
X149314484Y-70245489D02*
X149243055Y-70174060D01*
X149243055Y-70174060D02*
X149100198Y-70102631D01*
X149100198Y-70102631D02*
X148957341Y-70102631D01*
X148957341Y-70102631D02*
X148814484Y-70174060D01*
X148814484Y-70174060D02*
X148743055Y-70245489D01*
X148743055Y-70245489D02*
X148671626Y-70388346D01*
X148671626Y-70388346D02*
X148600198Y-70674060D01*
X148600198Y-70674060D02*
X148528769Y-70816917D01*
X148528769Y-70816917D02*
X148457341Y-70888346D01*
X148457341Y-70888346D02*
X148314484Y-70959774D01*
X148314484Y-70959774D02*
X148171626Y-70959774D01*
X148171626Y-70959774D02*
X148028769Y-70888346D01*
X148028769Y-70888346D02*
X147957341Y-70816917D01*
X147957341Y-70816917D02*
X147885912Y-70674060D01*
X147885912Y-70674060D02*
X147885912Y-70316917D01*
X147885912Y-70316917D02*
X147957341Y-70102631D01*
X149385912Y-69459775D02*
X147885912Y-69459775D01*
X147885912Y-69459775D02*
X147885912Y-68888346D01*
X147885912Y-68888346D02*
X147957341Y-68745489D01*
X147957341Y-68745489D02*
X148028769Y-68674060D01*
X148028769Y-68674060D02*
X148171626Y-68602632D01*
X148171626Y-68602632D02*
X148385912Y-68602632D01*
X148385912Y-68602632D02*
X148528769Y-68674060D01*
X148528769Y-68674060D02*
X148600198Y-68745489D01*
X148600198Y-68745489D02*
X148671626Y-68888346D01*
X148671626Y-68888346D02*
X148671626Y-69459775D01*
X147885912Y-68102632D02*
X147885912Y-67174060D01*
X147885912Y-67174060D02*
X148457341Y-67674060D01*
X148457341Y-67674060D02*
X148457341Y-67459775D01*
X148457341Y-67459775D02*
X148528769Y-67316918D01*
X148528769Y-67316918D02*
X148600198Y-67245489D01*
X148600198Y-67245489D02*
X148743055Y-67174060D01*
X148743055Y-67174060D02*
X149100198Y-67174060D01*
X149100198Y-67174060D02*
X149243055Y-67245489D01*
X149243055Y-67245489D02*
X149314484Y-67316918D01*
X149314484Y-67316918D02*
X149385912Y-67459775D01*
X149385912Y-67459775D02*
X149385912Y-67888346D01*
X149385912Y-67888346D02*
X149314484Y-68031203D01*
X149314484Y-68031203D02*
X149243055Y-68102632D01*
X148028769Y-66602632D02*
X147957341Y-66531204D01*
X147957341Y-66531204D02*
X147885912Y-66388347D01*
X147885912Y-66388347D02*
X147885912Y-66031204D01*
X147885912Y-66031204D02*
X147957341Y-65888347D01*
X147957341Y-65888347D02*
X148028769Y-65816918D01*
X148028769Y-65816918D02*
X148171626Y-65745489D01*
X148171626Y-65745489D02*
X148314484Y-65745489D01*
X148314484Y-65745489D02*
X148528769Y-65816918D01*
X148528769Y-65816918D02*
X149385912Y-66674061D01*
X149385912Y-66674061D02*
X149385912Y-65745489D01*
X148814484Y-65102633D02*
X148814484Y-63959776D01*
X149243055Y-62388347D02*
X149314484Y-62459775D01*
X149314484Y-62459775D02*
X149385912Y-62674061D01*
X149385912Y-62674061D02*
X149385912Y-62816918D01*
X149385912Y-62816918D02*
X149314484Y-63031204D01*
X149314484Y-63031204D02*
X149171626Y-63174061D01*
X149171626Y-63174061D02*
X149028769Y-63245490D01*
X149028769Y-63245490D02*
X148743055Y-63316918D01*
X148743055Y-63316918D02*
X148528769Y-63316918D01*
X148528769Y-63316918D02*
X148243055Y-63245490D01*
X148243055Y-63245490D02*
X148100198Y-63174061D01*
X148100198Y-63174061D02*
X147957341Y-63031204D01*
X147957341Y-63031204D02*
X147885912Y-62816918D01*
X147885912Y-62816918D02*
X147885912Y-62674061D01*
X147885912Y-62674061D02*
X147957341Y-62459775D01*
X147957341Y-62459775D02*
X148028769Y-62388347D01*
X147885912Y-61888347D02*
X147885912Y-60959775D01*
X147885912Y-60959775D02*
X148457341Y-61459775D01*
X148457341Y-61459775D02*
X148457341Y-61245490D01*
X148457341Y-61245490D02*
X148528769Y-61102633D01*
X148528769Y-61102633D02*
X148600198Y-61031204D01*
X148600198Y-61031204D02*
X148743055Y-60959775D01*
X148743055Y-60959775D02*
X149100198Y-60959775D01*
X149100198Y-60959775D02*
X149243055Y-61031204D01*
X149243055Y-61031204D02*
X149314484Y-61102633D01*
X149314484Y-61102633D02*
X149385912Y-61245490D01*
X149385912Y-61245490D02*
X149385912Y-61674061D01*
X149385912Y-61674061D02*
X149314484Y-61816918D01*
X149314484Y-61816918D02*
X149243055Y-61888347D01*
X151729400Y-72316917D02*
X151800828Y-72102632D01*
X151800828Y-72102632D02*
X151800828Y-71745489D01*
X151800828Y-71745489D02*
X151729400Y-71602632D01*
X151729400Y-71602632D02*
X151657971Y-71531203D01*
X151657971Y-71531203D02*
X151515114Y-71459774D01*
X151515114Y-71459774D02*
X151372257Y-71459774D01*
X151372257Y-71459774D02*
X151229400Y-71531203D01*
X151229400Y-71531203D02*
X151157971Y-71602632D01*
X151157971Y-71602632D02*
X151086542Y-71745489D01*
X151086542Y-71745489D02*
X151015114Y-72031203D01*
X151015114Y-72031203D02*
X150943685Y-72174060D01*
X150943685Y-72174060D02*
X150872257Y-72245489D01*
X150872257Y-72245489D02*
X150729400Y-72316917D01*
X150729400Y-72316917D02*
X150586542Y-72316917D01*
X150586542Y-72316917D02*
X150443685Y-72245489D01*
X150443685Y-72245489D02*
X150372257Y-72174060D01*
X150372257Y-72174060D02*
X150300828Y-72031203D01*
X150300828Y-72031203D02*
X150300828Y-71674060D01*
X150300828Y-71674060D02*
X150372257Y-71459774D01*
X150800828Y-70174061D02*
X151800828Y-70174061D01*
X150800828Y-70816918D02*
X151586542Y-70816918D01*
X151586542Y-70816918D02*
X151729400Y-70745489D01*
X151729400Y-70745489D02*
X151800828Y-70602632D01*
X151800828Y-70602632D02*
X151800828Y-70388346D01*
X151800828Y-70388346D02*
X151729400Y-70245489D01*
X151729400Y-70245489D02*
X151657971Y-70174061D01*
X150800828Y-69459775D02*
X152300828Y-69459775D01*
X150872257Y-69459775D02*
X150800828Y-69316918D01*
X150800828Y-69316918D02*
X150800828Y-69031203D01*
X150800828Y-69031203D02*
X150872257Y-68888346D01*
X150872257Y-68888346D02*
X150943685Y-68816918D01*
X150943685Y-68816918D02*
X151086542Y-68745489D01*
X151086542Y-68745489D02*
X151515114Y-68745489D01*
X151515114Y-68745489D02*
X151657971Y-68816918D01*
X151657971Y-68816918D02*
X151729400Y-68888346D01*
X151729400Y-68888346D02*
X151800828Y-69031203D01*
X151800828Y-69031203D02*
X151800828Y-69316918D01*
X151800828Y-69316918D02*
X151729400Y-69459775D01*
X151729400Y-67531203D02*
X151800828Y-67674060D01*
X151800828Y-67674060D02*
X151800828Y-67959775D01*
X151800828Y-67959775D02*
X151729400Y-68102632D01*
X151729400Y-68102632D02*
X151586542Y-68174060D01*
X151586542Y-68174060D02*
X151015114Y-68174060D01*
X151015114Y-68174060D02*
X150872257Y-68102632D01*
X150872257Y-68102632D02*
X150800828Y-67959775D01*
X150800828Y-67959775D02*
X150800828Y-67674060D01*
X150800828Y-67674060D02*
X150872257Y-67531203D01*
X150872257Y-67531203D02*
X151015114Y-67459775D01*
X151015114Y-67459775D02*
X151157971Y-67459775D01*
X151157971Y-67459775D02*
X151300828Y-68174060D01*
X151800828Y-66816918D02*
X150800828Y-66816918D01*
X151086542Y-66816918D02*
X150943685Y-66745489D01*
X150943685Y-66745489D02*
X150872257Y-66674061D01*
X150872257Y-66674061D02*
X150800828Y-66531203D01*
X150800828Y-66531203D02*
X150800828Y-66388346D01*
X151800828Y-65888347D02*
X150800828Y-65888347D01*
X150943685Y-65888347D02*
X150872257Y-65816918D01*
X150872257Y-65816918D02*
X150800828Y-65674061D01*
X150800828Y-65674061D02*
X150800828Y-65459775D01*
X150800828Y-65459775D02*
X150872257Y-65316918D01*
X150872257Y-65316918D02*
X151015114Y-65245490D01*
X151015114Y-65245490D02*
X151800828Y-65245490D01*
X151015114Y-65245490D02*
X150872257Y-65174061D01*
X150872257Y-65174061D02*
X150800828Y-65031204D01*
X150800828Y-65031204D02*
X150800828Y-64816918D01*
X150800828Y-64816918D02*
X150872257Y-64674061D01*
X150872257Y-64674061D02*
X151015114Y-64602632D01*
X151015114Y-64602632D02*
X151800828Y-64602632D01*
X151800828Y-63888347D02*
X150800828Y-63888347D01*
X150300828Y-63888347D02*
X150372257Y-63959775D01*
X150372257Y-63959775D02*
X150443685Y-63888347D01*
X150443685Y-63888347D02*
X150372257Y-63816918D01*
X150372257Y-63816918D02*
X150300828Y-63888347D01*
X150300828Y-63888347D02*
X150443685Y-63888347D01*
X150800828Y-63174061D02*
X151800828Y-63174061D01*
X150943685Y-63174061D02*
X150872257Y-63102632D01*
X150872257Y-63102632D02*
X150800828Y-62959775D01*
X150800828Y-62959775D02*
X150800828Y-62745489D01*
X150800828Y-62745489D02*
X150872257Y-62602632D01*
X150872257Y-62602632D02*
X151015114Y-62531204D01*
X151015114Y-62531204D02*
X151800828Y-62531204D01*
X151800828Y-61816918D02*
X150800828Y-61816918D01*
X150300828Y-61816918D02*
X150372257Y-61888346D01*
X150372257Y-61888346D02*
X150443685Y-61816918D01*
X150443685Y-61816918D02*
X150372257Y-61745489D01*
X150372257Y-61745489D02*
X150300828Y-61816918D01*
X150300828Y-61816918D02*
X150443685Y-61816918D01*
D12*
X121764286Y-60972371D02*
X121764286Y-60372371D01*
X122392857Y-60915228D02*
X122364285Y-60943800D01*
X122364285Y-60943800D02*
X122278571Y-60972371D01*
X122278571Y-60972371D02*
X122221428Y-60972371D01*
X122221428Y-60972371D02*
X122135714Y-60943800D01*
X122135714Y-60943800D02*
X122078571Y-60886657D01*
X122078571Y-60886657D02*
X122050000Y-60829514D01*
X122050000Y-60829514D02*
X122021428Y-60715228D01*
X122021428Y-60715228D02*
X122021428Y-60629514D01*
X122021428Y-60629514D02*
X122050000Y-60515228D01*
X122050000Y-60515228D02*
X122078571Y-60458085D01*
X122078571Y-60458085D02*
X122135714Y-60400942D01*
X122135714Y-60400942D02*
X122221428Y-60372371D01*
X122221428Y-60372371D02*
X122278571Y-60372371D01*
X122278571Y-60372371D02*
X122364285Y-60400942D01*
X122364285Y-60400942D02*
X122392857Y-60429514D01*
X122964285Y-60972371D02*
X122621428Y-60972371D01*
X122792857Y-60972371D02*
X122792857Y-60372371D01*
X122792857Y-60372371D02*
X122735714Y-60458085D01*
X122735714Y-60458085D02*
X122678571Y-60515228D01*
X122678571Y-60515228D02*
X122621428Y-60543800D01*
D13*
X118104761Y-68350057D02*
X118009523Y-68302438D01*
X118009523Y-68302438D02*
X117914285Y-68207200D01*
X117914285Y-68207200D02*
X117771428Y-68064342D01*
X117771428Y-68064342D02*
X117676190Y-68016723D01*
X117676190Y-68016723D02*
X117580952Y-68016723D01*
X117628571Y-68254819D02*
X117533333Y-68207200D01*
X117533333Y-68207200D02*
X117438095Y-68111961D01*
X117438095Y-68111961D02*
X117390476Y-67921485D01*
X117390476Y-67921485D02*
X117390476Y-67588152D01*
X117390476Y-67588152D02*
X117438095Y-67397676D01*
X117438095Y-67397676D02*
X117533333Y-67302438D01*
X117533333Y-67302438D02*
X117628571Y-67254819D01*
X117628571Y-67254819D02*
X117819047Y-67254819D01*
X117819047Y-67254819D02*
X117914285Y-67302438D01*
X117914285Y-67302438D02*
X118009523Y-67397676D01*
X118009523Y-67397676D02*
X118057142Y-67588152D01*
X118057142Y-67588152D02*
X118057142Y-67921485D01*
X118057142Y-67921485D02*
X118009523Y-68111961D01*
X118009523Y-68111961D02*
X117914285Y-68207200D01*
X117914285Y-68207200D02*
X117819047Y-68254819D01*
X117819047Y-68254819D02*
X117628571Y-68254819D01*
X119009523Y-68254819D02*
X118438095Y-68254819D01*
X118723809Y-68254819D02*
X118723809Y-67254819D01*
X118723809Y-67254819D02*
X118628571Y-67397676D01*
X118628571Y-67397676D02*
X118533333Y-67492914D01*
X118533333Y-67492914D02*
X118438095Y-67540533D01*
X132883333Y-72059580D02*
X132835714Y-72107200D01*
X132835714Y-72107200D02*
X132692857Y-72154819D01*
X132692857Y-72154819D02*
X132597619Y-72154819D01*
X132597619Y-72154819D02*
X132454762Y-72107200D01*
X132454762Y-72107200D02*
X132359524Y-72011961D01*
X132359524Y-72011961D02*
X132311905Y-71916723D01*
X132311905Y-71916723D02*
X132264286Y-71726247D01*
X132264286Y-71726247D02*
X132264286Y-71583390D01*
X132264286Y-71583390D02*
X132311905Y-71392914D01*
X132311905Y-71392914D02*
X132359524Y-71297676D01*
X132359524Y-71297676D02*
X132454762Y-71202438D01*
X132454762Y-71202438D02*
X132597619Y-71154819D01*
X132597619Y-71154819D02*
X132692857Y-71154819D01*
X132692857Y-71154819D02*
X132835714Y-71202438D01*
X132835714Y-71202438D02*
X132883333Y-71250057D01*
X133740476Y-71488152D02*
X133740476Y-72154819D01*
X133502381Y-71107200D02*
X133264286Y-71821485D01*
X133264286Y-71821485D02*
X133883333Y-71821485D01*
X131183333Y-61854819D02*
X130707143Y-61854819D01*
X130707143Y-61854819D02*
X130707143Y-60854819D01*
X132040476Y-61854819D02*
X131469048Y-61854819D01*
X131754762Y-61854819D02*
X131754762Y-60854819D01*
X131754762Y-60854819D02*
X131659524Y-60997676D01*
X131659524Y-60997676D02*
X131564286Y-61092914D01*
X131564286Y-61092914D02*
X131469048Y-61140533D01*
X117754819Y-63066666D02*
X117278628Y-63399999D01*
X117754819Y-63638094D02*
X116754819Y-63638094D01*
X116754819Y-63638094D02*
X116754819Y-63257142D01*
X116754819Y-63257142D02*
X116802438Y-63161904D01*
X116802438Y-63161904D02*
X116850057Y-63114285D01*
X116850057Y-63114285D02*
X116945295Y-63066666D01*
X116945295Y-63066666D02*
X117088152Y-63066666D01*
X117088152Y-63066666D02*
X117183390Y-63114285D01*
X117183390Y-63114285D02*
X117231009Y-63161904D01*
X117231009Y-63161904D02*
X117278628Y-63257142D01*
X117278628Y-63257142D02*
X117278628Y-63638094D01*
X117088152Y-62209523D02*
X117754819Y-62209523D01*
X116707200Y-62447618D02*
X117421485Y-62685713D01*
X117421485Y-62685713D02*
X117421485Y-62066666D01*
X148083333Y-77854819D02*
X147750000Y-77378628D01*
X147511905Y-77854819D02*
X147511905Y-76854819D01*
X147511905Y-76854819D02*
X147892857Y-76854819D01*
X147892857Y-76854819D02*
X147988095Y-76902438D01*
X147988095Y-76902438D02*
X148035714Y-76950057D01*
X148035714Y-76950057D02*
X148083333Y-77045295D01*
X148083333Y-77045295D02*
X148083333Y-77188152D01*
X148083333Y-77188152D02*
X148035714Y-77283390D01*
X148035714Y-77283390D02*
X147988095Y-77331009D01*
X147988095Y-77331009D02*
X147892857Y-77378628D01*
X147892857Y-77378628D02*
X147511905Y-77378628D01*
X148416667Y-76854819D02*
X149083333Y-76854819D01*
X149083333Y-76854819D02*
X148654762Y-77854819D01*
X157358095Y-74854819D02*
X157358095Y-75664342D01*
X157358095Y-75664342D02*
X157405714Y-75759580D01*
X157405714Y-75759580D02*
X157453333Y-75807200D01*
X157453333Y-75807200D02*
X157548571Y-75854819D01*
X157548571Y-75854819D02*
X157739047Y-75854819D01*
X157739047Y-75854819D02*
X157834285Y-75807200D01*
X157834285Y-75807200D02*
X157881904Y-75759580D01*
X157881904Y-75759580D02*
X157929523Y-75664342D01*
X157929523Y-75664342D02*
X157929523Y-74854819D01*
X158310476Y-74854819D02*
X158929523Y-74854819D01*
X158929523Y-74854819D02*
X158596190Y-75235771D01*
X158596190Y-75235771D02*
X158739047Y-75235771D01*
X158739047Y-75235771D02*
X158834285Y-75283390D01*
X158834285Y-75283390D02*
X158881904Y-75331009D01*
X158881904Y-75331009D02*
X158929523Y-75426247D01*
X158929523Y-75426247D02*
X158929523Y-75664342D01*
X158929523Y-75664342D02*
X158881904Y-75759580D01*
X158881904Y-75759580D02*
X158834285Y-75807200D01*
X158834285Y-75807200D02*
X158739047Y-75854819D01*
X158739047Y-75854819D02*
X158453333Y-75854819D01*
X158453333Y-75854819D02*
X158358095Y-75807200D01*
X158358095Y-75807200D02*
X158310476Y-75759580D01*
X119859580Y-73666666D02*
X119907200Y-73714285D01*
X119907200Y-73714285D02*
X119954819Y-73857142D01*
X119954819Y-73857142D02*
X119954819Y-73952380D01*
X119954819Y-73952380D02*
X119907200Y-74095237D01*
X119907200Y-74095237D02*
X119811961Y-74190475D01*
X119811961Y-74190475D02*
X119716723Y-74238094D01*
X119716723Y-74238094D02*
X119526247Y-74285713D01*
X119526247Y-74285713D02*
X119383390Y-74285713D01*
X119383390Y-74285713D02*
X119192914Y-74238094D01*
X119192914Y-74238094D02*
X119097676Y-74190475D01*
X119097676Y-74190475D02*
X119002438Y-74095237D01*
X119002438Y-74095237D02*
X118954819Y-73952380D01*
X118954819Y-73952380D02*
X118954819Y-73857142D01*
X118954819Y-73857142D02*
X119002438Y-73714285D01*
X119002438Y-73714285D02*
X119050057Y-73666666D01*
X118954819Y-72761904D02*
X118954819Y-73238094D01*
X118954819Y-73238094D02*
X119431009Y-73285713D01*
X119431009Y-73285713D02*
X119383390Y-73238094D01*
X119383390Y-73238094D02*
X119335771Y-73142856D01*
X119335771Y-73142856D02*
X119335771Y-72904761D01*
X119335771Y-72904761D02*
X119383390Y-72809523D01*
X119383390Y-72809523D02*
X119431009Y-72761904D01*
X119431009Y-72761904D02*
X119526247Y-72714285D01*
X119526247Y-72714285D02*
X119764342Y-72714285D01*
X119764342Y-72714285D02*
X119859580Y-72761904D01*
X119859580Y-72761904D02*
X119907200Y-72809523D01*
X119907200Y-72809523D02*
X119954819Y-72904761D01*
X119954819Y-72904761D02*
X119954819Y-73142856D01*
X119954819Y-73142856D02*
X119907200Y-73238094D01*
X119907200Y-73238094D02*
X119859580Y-73285713D01*
X158216622Y-85402319D02*
X158216622Y-86116604D01*
X158216622Y-86116604D02*
X158169003Y-86259461D01*
X158169003Y-86259461D02*
X158073765Y-86354700D01*
X158073765Y-86354700D02*
X157930908Y-86402319D01*
X157930908Y-86402319D02*
X157835670Y-86402319D01*
X159121384Y-85735652D02*
X159121384Y-86402319D01*
X158883289Y-85354700D02*
X158645194Y-86068985D01*
X158645194Y-86068985D02*
X159264241Y-86068985D01*
X152654819Y-84488094D02*
X151654819Y-84488094D01*
X151654819Y-84488094D02*
X151654819Y-84249999D01*
X151654819Y-84249999D02*
X151702438Y-84107142D01*
X151702438Y-84107142D02*
X151797676Y-84011904D01*
X151797676Y-84011904D02*
X151892914Y-83964285D01*
X151892914Y-83964285D02*
X152083390Y-83916666D01*
X152083390Y-83916666D02*
X152226247Y-83916666D01*
X152226247Y-83916666D02*
X152416723Y-83964285D01*
X152416723Y-83964285D02*
X152511961Y-84011904D01*
X152511961Y-84011904D02*
X152607200Y-84107142D01*
X152607200Y-84107142D02*
X152654819Y-84249999D01*
X152654819Y-84249999D02*
X152654819Y-84488094D01*
X152654819Y-82964285D02*
X152654819Y-83535713D01*
X152654819Y-83249999D02*
X151654819Y-83249999D01*
X151654819Y-83249999D02*
X151797676Y-83345237D01*
X151797676Y-83345237D02*
X151892914Y-83440475D01*
X151892914Y-83440475D02*
X151940533Y-83535713D01*
X131566666Y-55404819D02*
X131566666Y-56119104D01*
X131566666Y-56119104D02*
X131519047Y-56261961D01*
X131519047Y-56261961D02*
X131423809Y-56357200D01*
X131423809Y-56357200D02*
X131280952Y-56404819D01*
X131280952Y-56404819D02*
X131185714Y-56404819D01*
X132090476Y-56404819D02*
X132280952Y-56404819D01*
X132280952Y-56404819D02*
X132376190Y-56357200D01*
X132376190Y-56357200D02*
X132423809Y-56309580D01*
X132423809Y-56309580D02*
X132519047Y-56166723D01*
X132519047Y-56166723D02*
X132566666Y-55976247D01*
X132566666Y-55976247D02*
X132566666Y-55595295D01*
X132566666Y-55595295D02*
X132519047Y-55500057D01*
X132519047Y-55500057D02*
X132471428Y-55452438D01*
X132471428Y-55452438D02*
X132376190Y-55404819D01*
X132376190Y-55404819D02*
X132185714Y-55404819D01*
X132185714Y-55404819D02*
X132090476Y-55452438D01*
X132090476Y-55452438D02*
X132042857Y-55500057D01*
X132042857Y-55500057D02*
X131995238Y-55595295D01*
X131995238Y-55595295D02*
X131995238Y-55833390D01*
X131995238Y-55833390D02*
X132042857Y-55928628D01*
X132042857Y-55928628D02*
X132090476Y-55976247D01*
X132090476Y-55976247D02*
X132185714Y-56023866D01*
X132185714Y-56023866D02*
X132376190Y-56023866D01*
X132376190Y-56023866D02*
X132471428Y-55976247D01*
X132471428Y-55976247D02*
X132519047Y-55928628D01*
X132519047Y-55928628D02*
X132566666Y-55833390D01*
X140566666Y-78504819D02*
X140566666Y-79219104D01*
X140566666Y-79219104D02*
X140519047Y-79361961D01*
X140519047Y-79361961D02*
X140423809Y-79457200D01*
X140423809Y-79457200D02*
X140280952Y-79504819D01*
X140280952Y-79504819D02*
X140185714Y-79504819D01*
X140947619Y-78504819D02*
X141614285Y-78504819D01*
X141614285Y-78504819D02*
X141185714Y-79504819D01*
X126633333Y-83559580D02*
X126585714Y-83607200D01*
X126585714Y-83607200D02*
X126442857Y-83654819D01*
X126442857Y-83654819D02*
X126347619Y-83654819D01*
X126347619Y-83654819D02*
X126204762Y-83607200D01*
X126204762Y-83607200D02*
X126109524Y-83511961D01*
X126109524Y-83511961D02*
X126061905Y-83416723D01*
X126061905Y-83416723D02*
X126014286Y-83226247D01*
X126014286Y-83226247D02*
X126014286Y-83083390D01*
X126014286Y-83083390D02*
X126061905Y-82892914D01*
X126061905Y-82892914D02*
X126109524Y-82797676D01*
X126109524Y-82797676D02*
X126204762Y-82702438D01*
X126204762Y-82702438D02*
X126347619Y-82654819D01*
X126347619Y-82654819D02*
X126442857Y-82654819D01*
X126442857Y-82654819D02*
X126585714Y-82702438D01*
X126585714Y-82702438D02*
X126633333Y-82750057D01*
X127014286Y-82750057D02*
X127061905Y-82702438D01*
X127061905Y-82702438D02*
X127157143Y-82654819D01*
X127157143Y-82654819D02*
X127395238Y-82654819D01*
X127395238Y-82654819D02*
X127490476Y-82702438D01*
X127490476Y-82702438D02*
X127538095Y-82750057D01*
X127538095Y-82750057D02*
X127585714Y-82845295D01*
X127585714Y-82845295D02*
X127585714Y-82940533D01*
X127585714Y-82940533D02*
X127538095Y-83083390D01*
X127538095Y-83083390D02*
X126966667Y-83654819D01*
X126966667Y-83654819D02*
X127585714Y-83654819D01*
X122924819Y-66166666D02*
X122448628Y-66499999D01*
X122924819Y-66738094D02*
X121924819Y-66738094D01*
X121924819Y-66738094D02*
X121924819Y-66357142D01*
X121924819Y-66357142D02*
X121972438Y-66261904D01*
X121972438Y-66261904D02*
X122020057Y-66214285D01*
X122020057Y-66214285D02*
X122115295Y-66166666D01*
X122115295Y-66166666D02*
X122258152Y-66166666D01*
X122258152Y-66166666D02*
X122353390Y-66214285D01*
X122353390Y-66214285D02*
X122401009Y-66261904D01*
X122401009Y-66261904D02*
X122448628Y-66357142D01*
X122448628Y-66357142D02*
X122448628Y-66738094D01*
X122020057Y-65785713D02*
X121972438Y-65738094D01*
X121972438Y-65738094D02*
X121924819Y-65642856D01*
X121924819Y-65642856D02*
X121924819Y-65404761D01*
X121924819Y-65404761D02*
X121972438Y-65309523D01*
X121972438Y-65309523D02*
X122020057Y-65261904D01*
X122020057Y-65261904D02*
X122115295Y-65214285D01*
X122115295Y-65214285D02*
X122210533Y-65214285D01*
X122210533Y-65214285D02*
X122353390Y-65261904D01*
X122353390Y-65261904D02*
X122924819Y-65833332D01*
X122924819Y-65833332D02*
X122924819Y-65214285D01*
X140749819Y-75038094D02*
X139749819Y-75038094D01*
X139749819Y-75038094D02*
X139749819Y-74799999D01*
X139749819Y-74799999D02*
X139797438Y-74657142D01*
X139797438Y-74657142D02*
X139892676Y-74561904D01*
X139892676Y-74561904D02*
X139987914Y-74514285D01*
X139987914Y-74514285D02*
X140178390Y-74466666D01*
X140178390Y-74466666D02*
X140321247Y-74466666D01*
X140321247Y-74466666D02*
X140511723Y-74514285D01*
X140511723Y-74514285D02*
X140606961Y-74561904D01*
X140606961Y-74561904D02*
X140702200Y-74657142D01*
X140702200Y-74657142D02*
X140749819Y-74799999D01*
X140749819Y-74799999D02*
X140749819Y-75038094D01*
X139845057Y-74085713D02*
X139797438Y-74038094D01*
X139797438Y-74038094D02*
X139749819Y-73942856D01*
X139749819Y-73942856D02*
X139749819Y-73704761D01*
X139749819Y-73704761D02*
X139797438Y-73609523D01*
X139797438Y-73609523D02*
X139845057Y-73561904D01*
X139845057Y-73561904D02*
X139940295Y-73514285D01*
X139940295Y-73514285D02*
X140035533Y-73514285D01*
X140035533Y-73514285D02*
X140178390Y-73561904D01*
X140178390Y-73561904D02*
X140749819Y-74133332D01*
X140749819Y-74133332D02*
X140749819Y-73514285D01*
X125333333Y-60699580D02*
X125285714Y-60747200D01*
X125285714Y-60747200D02*
X125142857Y-60794819D01*
X125142857Y-60794819D02*
X125047619Y-60794819D01*
X125047619Y-60794819D02*
X124904762Y-60747200D01*
X124904762Y-60747200D02*
X124809524Y-60651961D01*
X124809524Y-60651961D02*
X124761905Y-60556723D01*
X124761905Y-60556723D02*
X124714286Y-60366247D01*
X124714286Y-60366247D02*
X124714286Y-60223390D01*
X124714286Y-60223390D02*
X124761905Y-60032914D01*
X124761905Y-60032914D02*
X124809524Y-59937676D01*
X124809524Y-59937676D02*
X124904762Y-59842438D01*
X124904762Y-59842438D02*
X125047619Y-59794819D01*
X125047619Y-59794819D02*
X125142857Y-59794819D01*
X125142857Y-59794819D02*
X125285714Y-59842438D01*
X125285714Y-59842438D02*
X125333333Y-59890057D01*
X126285714Y-60794819D02*
X125714286Y-60794819D01*
X126000000Y-60794819D02*
X126000000Y-59794819D01*
X126000000Y-59794819D02*
X125904762Y-59937676D01*
X125904762Y-59937676D02*
X125809524Y-60032914D01*
X125809524Y-60032914D02*
X125714286Y-60080533D01*
X140616666Y-82104819D02*
X140616666Y-82819104D01*
X140616666Y-82819104D02*
X140569047Y-82961961D01*
X140569047Y-82961961D02*
X140473809Y-83057200D01*
X140473809Y-83057200D02*
X140330952Y-83104819D01*
X140330952Y-83104819D02*
X140235714Y-83104819D01*
X141569047Y-82104819D02*
X141092857Y-82104819D01*
X141092857Y-82104819D02*
X141045238Y-82581009D01*
X141045238Y-82581009D02*
X141092857Y-82533390D01*
X141092857Y-82533390D02*
X141188095Y-82485771D01*
X141188095Y-82485771D02*
X141426190Y-82485771D01*
X141426190Y-82485771D02*
X141521428Y-82533390D01*
X141521428Y-82533390D02*
X141569047Y-82581009D01*
X141569047Y-82581009D02*
X141616666Y-82676247D01*
X141616666Y-82676247D02*
X141616666Y-82914342D01*
X141616666Y-82914342D02*
X141569047Y-83009580D01*
X141569047Y-83009580D02*
X141521428Y-83057200D01*
X141521428Y-83057200D02*
X141426190Y-83104819D01*
X141426190Y-83104819D02*
X141188095Y-83104819D01*
X141188095Y-83104819D02*
X141092857Y-83057200D01*
X141092857Y-83057200D02*
X141045238Y-83009580D01*
X150354761Y-55550057D02*
X150259523Y-55502438D01*
X150259523Y-55502438D02*
X150164285Y-55407200D01*
X150164285Y-55407200D02*
X150021428Y-55264342D01*
X150021428Y-55264342D02*
X149926190Y-55216723D01*
X149926190Y-55216723D02*
X149830952Y-55216723D01*
X149878571Y-55454819D02*
X149783333Y-55407200D01*
X149783333Y-55407200D02*
X149688095Y-55311961D01*
X149688095Y-55311961D02*
X149640476Y-55121485D01*
X149640476Y-55121485D02*
X149640476Y-54788152D01*
X149640476Y-54788152D02*
X149688095Y-54597676D01*
X149688095Y-54597676D02*
X149783333Y-54502438D01*
X149783333Y-54502438D02*
X149878571Y-54454819D01*
X149878571Y-54454819D02*
X150069047Y-54454819D01*
X150069047Y-54454819D02*
X150164285Y-54502438D01*
X150164285Y-54502438D02*
X150259523Y-54597676D01*
X150259523Y-54597676D02*
X150307142Y-54788152D01*
X150307142Y-54788152D02*
X150307142Y-55121485D01*
X150307142Y-55121485D02*
X150259523Y-55311961D01*
X150259523Y-55311961D02*
X150164285Y-55407200D01*
X150164285Y-55407200D02*
X150069047Y-55454819D01*
X150069047Y-55454819D02*
X149878571Y-55454819D01*
X150688095Y-54550057D02*
X150735714Y-54502438D01*
X150735714Y-54502438D02*
X150830952Y-54454819D01*
X150830952Y-54454819D02*
X151069047Y-54454819D01*
X151069047Y-54454819D02*
X151164285Y-54502438D01*
X151164285Y-54502438D02*
X151211904Y-54550057D01*
X151211904Y-54550057D02*
X151259523Y-54645295D01*
X151259523Y-54645295D02*
X151259523Y-54740533D01*
X151259523Y-54740533D02*
X151211904Y-54883390D01*
X151211904Y-54883390D02*
X150640476Y-55454819D01*
X150640476Y-55454819D02*
X151259523Y-55454819D01*
X160066666Y-60854819D02*
X160066666Y-61569104D01*
X160066666Y-61569104D02*
X160019047Y-61711961D01*
X160019047Y-61711961D02*
X159923809Y-61807200D01*
X159923809Y-61807200D02*
X159780952Y-61854819D01*
X159780952Y-61854819D02*
X159685714Y-61854819D01*
X160447619Y-60854819D02*
X161066666Y-60854819D01*
X161066666Y-60854819D02*
X160733333Y-61235771D01*
X160733333Y-61235771D02*
X160876190Y-61235771D01*
X160876190Y-61235771D02*
X160971428Y-61283390D01*
X160971428Y-61283390D02*
X161019047Y-61331009D01*
X161019047Y-61331009D02*
X161066666Y-61426247D01*
X161066666Y-61426247D02*
X161066666Y-61664342D01*
X161066666Y-61664342D02*
X161019047Y-61759580D01*
X161019047Y-61759580D02*
X160971428Y-61807200D01*
X160971428Y-61807200D02*
X160876190Y-61854819D01*
X160876190Y-61854819D02*
X160590476Y-61854819D01*
X160590476Y-61854819D02*
X160495238Y-61807200D01*
X160495238Y-61807200D02*
X160447619Y-61759580D01*
X128633333Y-69554819D02*
X128300000Y-69078628D01*
X128061905Y-69554819D02*
X128061905Y-68554819D01*
X128061905Y-68554819D02*
X128442857Y-68554819D01*
X128442857Y-68554819D02*
X128538095Y-68602438D01*
X128538095Y-68602438D02*
X128585714Y-68650057D01*
X128585714Y-68650057D02*
X128633333Y-68745295D01*
X128633333Y-68745295D02*
X128633333Y-68888152D01*
X128633333Y-68888152D02*
X128585714Y-68983390D01*
X128585714Y-68983390D02*
X128538095Y-69031009D01*
X128538095Y-69031009D02*
X128442857Y-69078628D01*
X128442857Y-69078628D02*
X128061905Y-69078628D01*
X129538095Y-68554819D02*
X129061905Y-68554819D01*
X129061905Y-68554819D02*
X129014286Y-69031009D01*
X129014286Y-69031009D02*
X129061905Y-68983390D01*
X129061905Y-68983390D02*
X129157143Y-68935771D01*
X129157143Y-68935771D02*
X129395238Y-68935771D01*
X129395238Y-68935771D02*
X129490476Y-68983390D01*
X129490476Y-68983390D02*
X129538095Y-69031009D01*
X129538095Y-69031009D02*
X129585714Y-69126247D01*
X129585714Y-69126247D02*
X129585714Y-69364342D01*
X129585714Y-69364342D02*
X129538095Y-69459580D01*
X129538095Y-69459580D02*
X129490476Y-69507200D01*
X129490476Y-69507200D02*
X129395238Y-69554819D01*
X129395238Y-69554819D02*
X129157143Y-69554819D01*
X129157143Y-69554819D02*
X129061905Y-69507200D01*
X129061905Y-69507200D02*
X129014286Y-69459580D01*
D12*
X156639047Y-77401828D02*
X156578095Y-77371352D01*
X156578095Y-77371352D02*
X156517142Y-77310400D01*
X156517142Y-77310400D02*
X156425714Y-77218971D01*
X156425714Y-77218971D02*
X156364761Y-77188495D01*
X156364761Y-77188495D02*
X156303809Y-77188495D01*
X156334285Y-77340876D02*
X156273333Y-77310400D01*
X156273333Y-77310400D02*
X156212380Y-77249447D01*
X156212380Y-77249447D02*
X156181904Y-77127542D01*
X156181904Y-77127542D02*
X156181904Y-76914209D01*
X156181904Y-76914209D02*
X156212380Y-76792304D01*
X156212380Y-76792304D02*
X156273333Y-76731352D01*
X156273333Y-76731352D02*
X156334285Y-76700876D01*
X156334285Y-76700876D02*
X156456190Y-76700876D01*
X156456190Y-76700876D02*
X156517142Y-76731352D01*
X156517142Y-76731352D02*
X156578095Y-76792304D01*
X156578095Y-76792304D02*
X156608571Y-76914209D01*
X156608571Y-76914209D02*
X156608571Y-77127542D01*
X156608571Y-77127542D02*
X156578095Y-77249447D01*
X156578095Y-77249447D02*
X156517142Y-77310400D01*
X156517142Y-77310400D02*
X156456190Y-77340876D01*
X156456190Y-77340876D02*
X156334285Y-77340876D01*
X156821904Y-76700876D02*
X157218095Y-76700876D01*
X157218095Y-76700876D02*
X157004761Y-76944685D01*
X157004761Y-76944685D02*
X157096190Y-76944685D01*
X157096190Y-76944685D02*
X157157142Y-76975161D01*
X157157142Y-76975161D02*
X157187618Y-77005638D01*
X157187618Y-77005638D02*
X157218095Y-77066590D01*
X157218095Y-77066590D02*
X157218095Y-77218971D01*
X157218095Y-77218971D02*
X157187618Y-77279923D01*
X157187618Y-77279923D02*
X157157142Y-77310400D01*
X157157142Y-77310400D02*
X157096190Y-77340876D01*
X157096190Y-77340876D02*
X156913333Y-77340876D01*
X156913333Y-77340876D02*
X156852380Y-77310400D01*
X156852380Y-77310400D02*
X156821904Y-77279923D01*
D13*
X131566666Y-58954819D02*
X131566666Y-59669104D01*
X131566666Y-59669104D02*
X131519047Y-59811961D01*
X131519047Y-59811961D02*
X131423809Y-59907200D01*
X131423809Y-59907200D02*
X131280952Y-59954819D01*
X131280952Y-59954819D02*
X131185714Y-59954819D01*
X132185714Y-59383390D02*
X132090476Y-59335771D01*
X132090476Y-59335771D02*
X132042857Y-59288152D01*
X132042857Y-59288152D02*
X131995238Y-59192914D01*
X131995238Y-59192914D02*
X131995238Y-59145295D01*
X131995238Y-59145295D02*
X132042857Y-59050057D01*
X132042857Y-59050057D02*
X132090476Y-59002438D01*
X132090476Y-59002438D02*
X132185714Y-58954819D01*
X132185714Y-58954819D02*
X132376190Y-58954819D01*
X132376190Y-58954819D02*
X132471428Y-59002438D01*
X132471428Y-59002438D02*
X132519047Y-59050057D01*
X132519047Y-59050057D02*
X132566666Y-59145295D01*
X132566666Y-59145295D02*
X132566666Y-59192914D01*
X132566666Y-59192914D02*
X132519047Y-59288152D01*
X132519047Y-59288152D02*
X132471428Y-59335771D01*
X132471428Y-59335771D02*
X132376190Y-59383390D01*
X132376190Y-59383390D02*
X132185714Y-59383390D01*
X132185714Y-59383390D02*
X132090476Y-59431009D01*
X132090476Y-59431009D02*
X132042857Y-59478628D01*
X132042857Y-59478628D02*
X131995238Y-59573866D01*
X131995238Y-59573866D02*
X131995238Y-59764342D01*
X131995238Y-59764342D02*
X132042857Y-59859580D01*
X132042857Y-59859580D02*
X132090476Y-59907200D01*
X132090476Y-59907200D02*
X132185714Y-59954819D01*
X132185714Y-59954819D02*
X132376190Y-59954819D01*
X132376190Y-59954819D02*
X132471428Y-59907200D01*
X132471428Y-59907200D02*
X132519047Y-59859580D01*
X132519047Y-59859580D02*
X132566666Y-59764342D01*
X132566666Y-59764342D02*
X132566666Y-59573866D01*
X132566666Y-59573866D02*
X132519047Y-59478628D01*
X132519047Y-59478628D02*
X132471428Y-59431009D01*
X132471428Y-59431009D02*
X132376190Y-59383390D01*
X128633333Y-77654819D02*
X128300000Y-77178628D01*
X128061905Y-77654819D02*
X128061905Y-76654819D01*
X128061905Y-76654819D02*
X128442857Y-76654819D01*
X128442857Y-76654819D02*
X128538095Y-76702438D01*
X128538095Y-76702438D02*
X128585714Y-76750057D01*
X128585714Y-76750057D02*
X128633333Y-76845295D01*
X128633333Y-76845295D02*
X128633333Y-76988152D01*
X128633333Y-76988152D02*
X128585714Y-77083390D01*
X128585714Y-77083390D02*
X128538095Y-77131009D01*
X128538095Y-77131009D02*
X128442857Y-77178628D01*
X128442857Y-77178628D02*
X128061905Y-77178628D01*
X129490476Y-76654819D02*
X129300000Y-76654819D01*
X129300000Y-76654819D02*
X129204762Y-76702438D01*
X129204762Y-76702438D02*
X129157143Y-76750057D01*
X129157143Y-76750057D02*
X129061905Y-76892914D01*
X129061905Y-76892914D02*
X129014286Y-77083390D01*
X129014286Y-77083390D02*
X129014286Y-77464342D01*
X129014286Y-77464342D02*
X129061905Y-77559580D01*
X129061905Y-77559580D02*
X129109524Y-77607200D01*
X129109524Y-77607200D02*
X129204762Y-77654819D01*
X129204762Y-77654819D02*
X129395238Y-77654819D01*
X129395238Y-77654819D02*
X129490476Y-77607200D01*
X129490476Y-77607200D02*
X129538095Y-77559580D01*
X129538095Y-77559580D02*
X129585714Y-77464342D01*
X129585714Y-77464342D02*
X129585714Y-77226247D01*
X129585714Y-77226247D02*
X129538095Y-77131009D01*
X129538095Y-77131009D02*
X129490476Y-77083390D01*
X129490476Y-77083390D02*
X129395238Y-77035771D01*
X129395238Y-77035771D02*
X129204762Y-77035771D01*
X129204762Y-77035771D02*
X129109524Y-77083390D01*
X129109524Y-77083390D02*
X129061905Y-77131009D01*
X129061905Y-77131009D02*
X129014286Y-77226247D01*
X133888095Y-80354819D02*
X133888095Y-81164342D01*
X133888095Y-81164342D02*
X133935714Y-81259580D01*
X133935714Y-81259580D02*
X133983333Y-81307200D01*
X133983333Y-81307200D02*
X134078571Y-81354819D01*
X134078571Y-81354819D02*
X134269047Y-81354819D01*
X134269047Y-81354819D02*
X134364285Y-81307200D01*
X134364285Y-81307200D02*
X134411904Y-81259580D01*
X134411904Y-81259580D02*
X134459523Y-81164342D01*
X134459523Y-81164342D02*
X134459523Y-80354819D01*
X135459523Y-81354819D02*
X134888095Y-81354819D01*
X135173809Y-81354819D02*
X135173809Y-80354819D01*
X135173809Y-80354819D02*
X135078571Y-80497676D01*
X135078571Y-80497676D02*
X134983333Y-80592914D01*
X134983333Y-80592914D02*
X134888095Y-80640533D01*
X127709819Y-66166666D02*
X127233628Y-66499999D01*
X127709819Y-66738094D02*
X126709819Y-66738094D01*
X126709819Y-66738094D02*
X126709819Y-66357142D01*
X126709819Y-66357142D02*
X126757438Y-66261904D01*
X126757438Y-66261904D02*
X126805057Y-66214285D01*
X126805057Y-66214285D02*
X126900295Y-66166666D01*
X126900295Y-66166666D02*
X127043152Y-66166666D01*
X127043152Y-66166666D02*
X127138390Y-66214285D01*
X127138390Y-66214285D02*
X127186009Y-66261904D01*
X127186009Y-66261904D02*
X127233628Y-66357142D01*
X127233628Y-66357142D02*
X127233628Y-66738094D01*
X126709819Y-65833332D02*
X126709819Y-65214285D01*
X126709819Y-65214285D02*
X127090771Y-65547618D01*
X127090771Y-65547618D02*
X127090771Y-65404761D01*
X127090771Y-65404761D02*
X127138390Y-65309523D01*
X127138390Y-65309523D02*
X127186009Y-65261904D01*
X127186009Y-65261904D02*
X127281247Y-65214285D01*
X127281247Y-65214285D02*
X127519342Y-65214285D01*
X127519342Y-65214285D02*
X127614580Y-65261904D01*
X127614580Y-65261904D02*
X127662200Y-65309523D01*
X127662200Y-65309523D02*
X127709819Y-65404761D01*
X127709819Y-65404761D02*
X127709819Y-65690475D01*
X127709819Y-65690475D02*
X127662200Y-65785713D01*
X127662200Y-65785713D02*
X127614580Y-65833332D01*
X126633333Y-81844159D02*
X126585714Y-81891779D01*
X126585714Y-81891779D02*
X126442857Y-81939398D01*
X126442857Y-81939398D02*
X126347619Y-81939398D01*
X126347619Y-81939398D02*
X126204762Y-81891779D01*
X126204762Y-81891779D02*
X126109524Y-81796540D01*
X126109524Y-81796540D02*
X126061905Y-81701302D01*
X126061905Y-81701302D02*
X126014286Y-81510826D01*
X126014286Y-81510826D02*
X126014286Y-81367969D01*
X126014286Y-81367969D02*
X126061905Y-81177493D01*
X126061905Y-81177493D02*
X126109524Y-81082255D01*
X126109524Y-81082255D02*
X126204762Y-80987017D01*
X126204762Y-80987017D02*
X126347619Y-80939398D01*
X126347619Y-80939398D02*
X126442857Y-80939398D01*
X126442857Y-80939398D02*
X126585714Y-80987017D01*
X126585714Y-80987017D02*
X126633333Y-81034636D01*
X126966667Y-80939398D02*
X127585714Y-80939398D01*
X127585714Y-80939398D02*
X127252381Y-81320350D01*
X127252381Y-81320350D02*
X127395238Y-81320350D01*
X127395238Y-81320350D02*
X127490476Y-81367969D01*
X127490476Y-81367969D02*
X127538095Y-81415588D01*
X127538095Y-81415588D02*
X127585714Y-81510826D01*
X127585714Y-81510826D02*
X127585714Y-81748921D01*
X127585714Y-81748921D02*
X127538095Y-81844159D01*
X127538095Y-81844159D02*
X127490476Y-81891779D01*
X127490476Y-81891779D02*
X127395238Y-81939398D01*
X127395238Y-81939398D02*
X127109524Y-81939398D01*
X127109524Y-81939398D02*
X127014286Y-81891779D01*
X127014286Y-81891779D02*
X126966667Y-81844159D01*
X127333333Y-63954819D02*
X127000000Y-63478628D01*
X126761905Y-63954819D02*
X126761905Y-62954819D01*
X126761905Y-62954819D02*
X127142857Y-62954819D01*
X127142857Y-62954819D02*
X127238095Y-63002438D01*
X127238095Y-63002438D02*
X127285714Y-63050057D01*
X127285714Y-63050057D02*
X127333333Y-63145295D01*
X127333333Y-63145295D02*
X127333333Y-63288152D01*
X127333333Y-63288152D02*
X127285714Y-63383390D01*
X127285714Y-63383390D02*
X127238095Y-63431009D01*
X127238095Y-63431009D02*
X127142857Y-63478628D01*
X127142857Y-63478628D02*
X126761905Y-63478628D01*
X128285714Y-63954819D02*
X127714286Y-63954819D01*
X128000000Y-63954819D02*
X128000000Y-62954819D01*
X128000000Y-62954819D02*
X127904762Y-63097676D01*
X127904762Y-63097676D02*
X127809524Y-63192914D01*
X127809524Y-63192914D02*
X127714286Y-63240533D01*
X116966666Y-54004819D02*
X116966666Y-54719104D01*
X116966666Y-54719104D02*
X116919047Y-54861961D01*
X116919047Y-54861961D02*
X116823809Y-54957200D01*
X116823809Y-54957200D02*
X116680952Y-55004819D01*
X116680952Y-55004819D02*
X116585714Y-55004819D01*
X117966666Y-55004819D02*
X117395238Y-55004819D01*
X117680952Y-55004819D02*
X117680952Y-54004819D01*
X117680952Y-54004819D02*
X117585714Y-54147676D01*
X117585714Y-54147676D02*
X117490476Y-54242914D01*
X117490476Y-54242914D02*
X117395238Y-54290533D01*
X149733333Y-81304819D02*
X149400000Y-80828628D01*
X149161905Y-81304819D02*
X149161905Y-80304819D01*
X149161905Y-80304819D02*
X149542857Y-80304819D01*
X149542857Y-80304819D02*
X149638095Y-80352438D01*
X149638095Y-80352438D02*
X149685714Y-80400057D01*
X149685714Y-80400057D02*
X149733333Y-80495295D01*
X149733333Y-80495295D02*
X149733333Y-80638152D01*
X149733333Y-80638152D02*
X149685714Y-80733390D01*
X149685714Y-80733390D02*
X149638095Y-80781009D01*
X149638095Y-80781009D02*
X149542857Y-80828628D01*
X149542857Y-80828628D02*
X149161905Y-80828628D01*
X150304762Y-80733390D02*
X150209524Y-80685771D01*
X150209524Y-80685771D02*
X150161905Y-80638152D01*
X150161905Y-80638152D02*
X150114286Y-80542914D01*
X150114286Y-80542914D02*
X150114286Y-80495295D01*
X150114286Y-80495295D02*
X150161905Y-80400057D01*
X150161905Y-80400057D02*
X150209524Y-80352438D01*
X150209524Y-80352438D02*
X150304762Y-80304819D01*
X150304762Y-80304819D02*
X150495238Y-80304819D01*
X150495238Y-80304819D02*
X150590476Y-80352438D01*
X150590476Y-80352438D02*
X150638095Y-80400057D01*
X150638095Y-80400057D02*
X150685714Y-80495295D01*
X150685714Y-80495295D02*
X150685714Y-80542914D01*
X150685714Y-80542914D02*
X150638095Y-80638152D01*
X150638095Y-80638152D02*
X150590476Y-80685771D01*
X150590476Y-80685771D02*
X150495238Y-80733390D01*
X150495238Y-80733390D02*
X150304762Y-80733390D01*
X150304762Y-80733390D02*
X150209524Y-80781009D01*
X150209524Y-80781009D02*
X150161905Y-80828628D01*
X150161905Y-80828628D02*
X150114286Y-80923866D01*
X150114286Y-80923866D02*
X150114286Y-81114342D01*
X150114286Y-81114342D02*
X150161905Y-81209580D01*
X150161905Y-81209580D02*
X150209524Y-81257200D01*
X150209524Y-81257200D02*
X150304762Y-81304819D01*
X150304762Y-81304819D02*
X150495238Y-81304819D01*
X150495238Y-81304819D02*
X150590476Y-81257200D01*
X150590476Y-81257200D02*
X150638095Y-81209580D01*
X150638095Y-81209580D02*
X150685714Y-81114342D01*
X150685714Y-81114342D02*
X150685714Y-80923866D01*
X150685714Y-80923866D02*
X150638095Y-80828628D01*
X150638095Y-80828628D02*
X150590476Y-80781009D01*
X150590476Y-80781009D02*
X150495238Y-80733390D01*
X160081476Y-69147604D02*
X160081476Y-69861889D01*
X160081476Y-69861889D02*
X160033857Y-70004746D01*
X160033857Y-70004746D02*
X159938619Y-70099985D01*
X159938619Y-70099985D02*
X159795762Y-70147604D01*
X159795762Y-70147604D02*
X159700524Y-70147604D01*
X160510048Y-69242842D02*
X160557667Y-69195223D01*
X160557667Y-69195223D02*
X160652905Y-69147604D01*
X160652905Y-69147604D02*
X160891000Y-69147604D01*
X160891000Y-69147604D02*
X160986238Y-69195223D01*
X160986238Y-69195223D02*
X161033857Y-69242842D01*
X161033857Y-69242842D02*
X161081476Y-69338080D01*
X161081476Y-69338080D02*
X161081476Y-69433318D01*
X161081476Y-69433318D02*
X161033857Y-69576175D01*
X161033857Y-69576175D02*
X160462429Y-70147604D01*
X160462429Y-70147604D02*
X161081476Y-70147604D01*
%TO.C,IC1*%
D16*
X122250000Y-64150000D02*
G75*
G02*
X122000000Y-64150000I-125000J0D01*
G01*
X122000000Y-64150000D02*
G75*
G02*
X122250000Y-64150000I125000J0D01*
G01*
%TO.C,Q1*%
D17*
X119177500Y-64940000D02*
X120697500Y-64940000D01*
X119177500Y-65940000D02*
X119177500Y-64940000D01*
X119177500Y-68060000D02*
X119177500Y-67060000D01*
X120697500Y-64940000D02*
X120697500Y-64990000D01*
X120697500Y-66110000D02*
X120697500Y-66890000D01*
X120697500Y-68010000D02*
X120697500Y-68060000D01*
X120697500Y-68060000D02*
X119177500Y-68060000D01*
X121237500Y-66880000D02*
X120997500Y-66550000D01*
X121477500Y-66550000D01*
X121237500Y-66880000D01*
G36*
X121237500Y-66880000D02*
G01*
X120997500Y-66550000D01*
X121477500Y-66550000D01*
X121237500Y-66880000D01*
G37*
%TO.C,C4*%
X134877164Y-71340000D02*
X135092836Y-71340000D01*
X134877164Y-72060000D02*
X135092836Y-72060000D01*
%TO.C,L1*%
D12*
X139700000Y-62100000D02*
X130700000Y-62100000D01*
X139700000Y-70100000D02*
X130700000Y-70100000D01*
%TO.C,R4*%
D17*
X116920000Y-61053641D02*
X116920000Y-60746359D01*
X117680000Y-61053641D02*
X117680000Y-60746359D01*
%TO.C,R7*%
X150562742Y-76877500D02*
X151037258Y-76877500D01*
X150562742Y-77922500D02*
X151037258Y-77922500D01*
%TO.C,U3*%
D18*
X141200000Y-76090000D02*
X141200000Y-53390000D01*
X145700000Y-52090000D02*
X145700000Y-53390000D01*
X145700000Y-53390000D02*
X141200000Y-53390000D01*
X154700000Y-52090000D02*
X145700000Y-52090000D01*
X154700000Y-52090000D02*
X154700000Y-53390000D01*
X159200000Y-53390000D02*
X154700000Y-53390000D01*
X159200000Y-76090000D02*
X141200000Y-76090000D01*
X159200000Y-76090000D02*
X159200000Y-53390000D01*
%TO.C,C5*%
D17*
X120790000Y-71154437D02*
X120790000Y-76910000D01*
X120790000Y-76910000D02*
X123140000Y-76910000D01*
X121854437Y-70090000D02*
X120790000Y-71154437D01*
X121854437Y-70090000D02*
X123140000Y-70090000D01*
X126047500Y-69062500D02*
X126047500Y-69850000D01*
X126441250Y-69456250D02*
X125653750Y-69456250D01*
X126545563Y-70090000D02*
X125260000Y-70090000D01*
X126545563Y-70090000D02*
X127610000Y-71154437D01*
X127610000Y-71154437D02*
X127610000Y-76910000D01*
X127610000Y-76910000D02*
X125260000Y-76910000D01*
%TO.C,J4*%
X157629956Y-80867500D02*
X164369956Y-80867500D01*
X157629956Y-86687500D02*
X157629956Y-80867500D01*
X159349956Y-86687500D02*
X159349956Y-80867500D01*
X162449956Y-86687500D02*
X162449956Y-80867500D01*
X163449956Y-86687500D02*
X163449956Y-80867500D01*
X164369956Y-80867500D02*
X164369956Y-84747500D01*
X164369956Y-85347500D02*
X164369956Y-86687500D01*
X164369956Y-86687500D02*
X157629956Y-86687500D01*
X164979956Y-85487500D02*
X164369956Y-85047500D01*
X164979956Y-84607500D01*
X164979956Y-85487500D01*
G36*
X164979956Y-85487500D02*
G01*
X164369956Y-85047500D01*
X164979956Y-84607500D01*
X164979956Y-85487500D01*
G37*
%TO.C,D1*%
X153050000Y-87260000D02*
X153050000Y-81750000D01*
X153050000Y-87260000D02*
X156350000Y-87260000D01*
X156350000Y-87260000D02*
X156350000Y-81750000D01*
%TO.C,C2*%
X129740580Y-82690000D02*
X129459420Y-82690000D01*
X129740580Y-83710000D02*
X129459420Y-83710000D01*
%TO.C,R2*%
X123377500Y-66237258D02*
X123377500Y-65762742D01*
X124422500Y-66237258D02*
X124422500Y-65762742D01*
%TO.C,D2*%
X136145000Y-70790000D02*
X136145000Y-76300000D01*
X139445000Y-70790000D02*
X136145000Y-70790000D01*
X139445000Y-70790000D02*
X139445000Y-76300000D01*
%TO.C,C1*%
X125392164Y-61140000D02*
X125607836Y-61140000D01*
X125392164Y-61860000D02*
X125607836Y-61860000D01*
%TO.C,Q2*%
X149690000Y-55840000D02*
X151210000Y-55840000D01*
X149690000Y-55890000D02*
X149690000Y-55840000D01*
X149690000Y-57790000D02*
X149690000Y-57010000D01*
X149690000Y-58960000D02*
X149690000Y-58910000D01*
X151210000Y-55840000D02*
X151210000Y-56840000D01*
X151210000Y-57960000D02*
X151210000Y-58960000D01*
X151210000Y-58960000D02*
X149690000Y-58960000D01*
X149390000Y-57350000D02*
X148910000Y-57350000D01*
X149150000Y-57020000D01*
X149390000Y-57350000D01*
G36*
X149390000Y-57350000D02*
G01*
X148910000Y-57350000D01*
X149150000Y-57020000D01*
X149390000Y-57350000D01*
G37*
%TO.C,J3*%
X161715000Y-55090000D02*
X161715000Y-56140000D01*
X161715000Y-56140000D02*
X160725000Y-56140000D01*
X161715000Y-61310000D02*
X161715000Y-60260000D01*
X162865000Y-55090000D02*
X161715000Y-55090000D01*
X162865000Y-61310000D02*
X161715000Y-61310000D01*
X164835000Y-56260000D02*
X164835000Y-60140000D01*
%TO.C,R5*%
X128277500Y-71162742D02*
X128277500Y-71637258D01*
X129322500Y-71162742D02*
X129322500Y-71637258D01*
%TO.C,Q3*%
X154277500Y-76790000D02*
X155797500Y-76790000D01*
X154277500Y-76840000D02*
X154277500Y-76790000D01*
X154277500Y-78740000D02*
X154277500Y-77960000D01*
X154277500Y-79910000D02*
X154277500Y-79860000D01*
X155797500Y-76790000D02*
X155797500Y-77790000D01*
X155797500Y-78910000D02*
X155797500Y-79910000D01*
X155797500Y-79910000D02*
X154277500Y-79910000D01*
X153977500Y-78300000D02*
X153497500Y-78300000D01*
X153737500Y-77970000D01*
X153977500Y-78300000D01*
G36*
X153977500Y-78300000D02*
G01*
X153497500Y-78300000D01*
X153737500Y-77970000D01*
X153977500Y-78300000D01*
G37*
%TO.C,R6*%
X128277500Y-74562742D02*
X128277500Y-75037258D01*
X129322500Y-74562742D02*
X129322500Y-75037258D01*
%TO.C,U1*%
D13*
X130025000Y-74225000D02*
X130025000Y-78375000D01*
X135175000Y-74225000D02*
X135175000Y-78375000D01*
D17*
X135430000Y-74040000D02*
X135100000Y-73800000D01*
X135430000Y-73560000D01*
X135430000Y-74040000D01*
G36*
X135430000Y-74040000D02*
G01*
X135100000Y-73800000D01*
X135430000Y-73560000D01*
X135430000Y-74040000D01*
G37*
%TO.C,R3*%
X125302500Y-65762742D02*
X125302500Y-66237258D01*
X126347500Y-65762742D02*
X126347500Y-66237258D01*
%TO.C,C3*%
X129740580Y-80974579D02*
X129459420Y-80974579D01*
X129740580Y-81994579D02*
X129459420Y-81994579D01*
%TO.C,R1*%
X125237258Y-62977500D02*
X124762742Y-62977500D01*
X125237258Y-64022500D02*
X124762742Y-64022500D01*
%TO.C,J1*%
X118815000Y-55790000D02*
X118815000Y-57490000D01*
X128155000Y-55790000D02*
X128155000Y-57490000D01*
%TO.C,R8*%
X151102500Y-79662742D02*
X151102500Y-80137258D01*
X152147500Y-79662742D02*
X152147500Y-80137258D01*
%TO.C,J2*%
X161729810Y-63382785D02*
X161729810Y-64432785D01*
X161729810Y-64432785D02*
X160739810Y-64432785D01*
X161729810Y-69602785D02*
X161729810Y-68552785D01*
X162879810Y-63382785D02*
X161729810Y-63382785D01*
X162879810Y-69602785D02*
X161729810Y-69602785D01*
X164849810Y-64552785D02*
X164849810Y-68432785D01*
%TD*%
M02*
