M48
; DRILL file KiCad 10.0.1 date 2026-05-08T08:54:33
; FORMAT={-:-/ absolute / metric / decimal}
; #@! TF.CreationDate,2026-05-08T08:54:33+02:00
; #@! TF.GenerationSoftware,Kicad,Pcbnew,10.0.1
; #@! TF.FileFunction,Plated,1,2,PTH
FMAT,2
METRIC
; #@! TA.AperFunction,Plated,PTH,ViaDrill
T1C0.300
; #@! TA.AperFunction,Plated,PTH,ComponentDrill
T2C0.300
; #@! TA.AperFunction,Plated,PTH,ComponentDrill
T3C0.600
; #@! TA.AperFunction,Plated,PTH,ComponentDrill
T4C0.750
; #@! TA.AperFunction,Plated,PTH,ComponentDrill
T5C0.840
; #@! TA.AperFunction,Plated,PTH,ComponentDrill
T6C1.200
%
G90
G05
T1
X117.2Y-65.3
X117.3Y-59.1
X117.55Y-86.3
X119.5Y-60.3
X119.8Y-61.7
X119.8Y-61.7
X119.8Y-63.3
X119.8Y-63.3
X120.225Y-62.5
X120.7Y-63.3
X120.7Y-63.3
X121.3Y-56.6
X122.7Y-56.0
X122.8Y-65.3
X124.1Y-56.0
X125.65Y-56.65
X126.9Y-65.3
X127.1Y-62.5
X130.0Y-54.7
X138.05Y-55.25
X139.1Y-55.25
X142.0Y-77.05
X143.1Y-77.05
X146.0Y-54.7
X147.9Y-56.9
X151.05Y-82.2
X154.7Y-54.7
X157.7Y-78.7
X158.4Y-78.0
X159.05Y-78.7
X159.75Y-78.0
X160.4Y-78.7
X161.1Y-78.0
X161.65Y-75.05
X161.7Y-63.9
X161.8Y-78.7
X162.5Y-78.0
X164.65Y-78.45
T2
X130.8Y-75.7
X130.8Y-76.9
X131.9Y-75.7
X131.9Y-76.9
X133.2Y-75.7
X133.2Y-76.9
X134.4Y-75.7
X134.4Y-76.9
T4
X163.2Y-57.2
X163.2Y-59.2
X163.2Y-61.2
X163.2Y-63.2
X163.2Y-68.4
X163.2Y-70.4
X163.2Y-72.4
X163.2Y-74.4
T5
X142.58Y-54.84
X142.58Y-57.38
X142.58Y-59.92
X142.58Y-62.46
X142.58Y-65.0
X142.58Y-67.54
X142.58Y-70.08
X142.58Y-72.62
X157.82Y-54.84
X157.82Y-57.38
X157.82Y-59.92
X157.82Y-62.46
X157.82Y-65.0
X157.82Y-67.54
X157.82Y-70.08
X157.82Y-72.62
T6
X160.85Y-82.507
X160.85Y-85.047
T3
G00X119.165Y-55.04
M15
G01X119.165Y-54.44
M16
G05
G00X119.165Y-58.84
M15
G01X119.165Y-58.24
M16
G05
G00X127.805Y-55.04
M15
G01X127.805Y-54.44
M16
G05
G00X127.805Y-58.84
M15
G01X127.805Y-58.24
M16
G05
M30
